<?xml version="1.0" standalone="no"?>
<!DOCTYPE svg PUBLIC "-//W3C//DTD SVG 1.1//EN" "http://www.w3.org/Graphics/SVG/1.1/DTD/svg11.dtd" >
<svg xmlns="http://www.w3.org/2000/svg">
<metadata>
This is a custom SVG webfont generated by Font Squirrel.
Copyright   : Copyright c 20052006 by Joshua Darden Inc All rights reserved
Foundry     : by Joshua Darden Inc
</metadata>
<defs>
<font id="OmnesRegularItalic" horiz-adv-x="1165" >
<font-face units-per-em="2048" ascent="1638" descent="-410" />
<missing-glyph horiz-adv-x="348" />
<glyph unicode=" "  horiz-adv-x="348" />
<glyph unicode="&#x09;" horiz-adv-x="348" />
<glyph unicode="&#xa0;" horiz-adv-x="348" />
<glyph unicode="!" horiz-adv-x="505" d="M66 57q0 74 32 107q27 27 76 26q98 0 98 -69q0 -74 -32 -107q-27 -27 -76 -26q-98 -1 -98 69zM199 420l133 840q8 43 25.5 58t52.5 15q61 0 85 -19q14 -11 13 -34q0 -16 -6 -37l-226 -840q-10 -41 -34 -41q-31 0 -39 13q-5 8 -6 25q1 9 2 20z" />
<glyph unicode="&#x22;" horiz-adv-x="731" d="M248 858l39 371q6 57 26.5 80.5t61.5 23.5q59 0 80 -26q10 -13 10 -37t-10 -58l-117 -362q-14 -51 -43 -51q-31 0 -41 11q-7 8 -7 29q0 8 1 19zM553 858l39 371q6 57 26.5 80.5t61.5 23.5q59 0 80 -26q10 -13 10 -37t-10 -58l-117 -362q-14 -51 -43 -51q-31 0 -41 11 q-7 8 -7 29q0 8 1 19z" />
<glyph unicode="#" horiz-adv-x="1280" d="M29 391q0 47 24 72q14 14 49 14h220l114 371h-198q-59 0 -60 33q0 47 25 71q14 14 49 15h219l111 360q0 6 24 6q29 0 50.5 -20.5t21.5 -67.5q0 -27 -16 -80l-62 -198h338l111 360q0 6 24 6q29 0 50.5 -20.5t21.5 -67.5q0 -27 -17 -80l-61 -198h199q59 0 59 -33 q0 -47 -25 -72q-14 -14 -49 -14h-221l-112 -371h198q59 0 60 -33q0 -47 -25 -71q-14 -14 -49 -15h-221l-109 -360q0 -6 -24 -6q-29 0 -50.5 20.5t-21.5 67.5q0 27 16 80l62 198h-338l-111 -360q0 -6 -24 -6q-29 0 -50.5 20.5t-21.5 67.5q0 27 16 80l62 198h-199 q-59 0 -59 33zM446 473h347l114 379h-346z" />
<glyph unicode="$" horiz-adv-x="1091" d="M23 272q0 31 21.5 51.5t42 25.5t22.5 -1q76 -190 288 -239l111 514q-145 63 -225 141t-80 219q0 158 123 261q120 101 325 102h8l25 118q14 63 57 64h15q53 0 53 -45q0 -9 -2 -19l-27 -129q162 -29 252 -116q66 -66 66 -136q0 -31 -20.5 -50t-41 -24t-22.5 1 q-72 170 -266 209l-107 -502q82 -35 128 -58.5t102.5 -66.5t82 -101.5t25.5 -134.5q0 -174 -125 -278q-118 -99 -340 -99q-13 0 -27 1l-26 -125q-14 -63 -58 -64h-14q-53 0 -53 45q0 9 2 19q29 137 29 139q-170 33 -269 131q-75 75 -75 147zM344 997q0 -86 50 -138t149 -99 l16 78l33 151q23 102 35 170l14 70h-8q-128 0 -207 -66q-82 -68 -82 -166zM504 96h19q154 0 232 64q83 68 83 184q0 84 -57.5 135t-174.5 103z" />
<glyph unicode="%" horiz-adv-x="1499" d="M51 37q0 43 74 110l1343 1209q2 2 6 2q5 0 12 -3q13 -5 25.5 -19.5t12.5 -35.5q0 -43 -74 -110l-1344 -1208q-2 0 -5 -1q-1 0 -2 -1q-3 0 -6 2q-5 2 -11 5t-11 8t-9.5 11t-7.5 14.5t-3 16.5zM162 991q0 143 97 249t243 106q119 0 198.5 -77t79.5 -204q0 -143 -97 -248.5 t-243 -105.5q-119 0 -198.5 76.5t-79.5 203.5zM274 997q0 -78 50.5 -130t124.5 -52q92 0 155.5 73t63.5 171q0 78 -50.5 130t-123.5 52q-92 0 -156 -73t-64 -171zM795 272q0 143 97 249t243 106q119 0 198.5 -77t79.5 -204q0 -143 -97 -248.5t-243 -105.5 q-119 0 -198.5 76.5t-79.5 203.5zM907 279q0 -78 50.5 -130.5t123.5 -52.5q92 0 155.5 73t63.5 171q0 78 -50 130t-124 52q-92 0 -155.5 -72.5t-63.5 -170.5z" />
<glyph unicode="&#x26;" horiz-adv-x="1333" d="M37 342q0 172 109.5 275.5t316.5 154.5q-66 106 -66 221q0 150 103.5 253.5t261.5 103.5q131 0 214 -78t83 -205q0 -281 -393 -358l292 -379q158 193 183 413q4 2 26.5 4.5t48 -19t25.5 -60.5q0 -76 -57.5 -199t-153.5 -229l8 -13q59 -76 105.5 -107.5t113.5 -31.5 q3 0 4 -15q0 -8 -3 -19q-3 -13 -10 -27.5t-26.5 -24.5t-47.5 -10q-70 0 -115 32.5t-107 112.5l-12 15q-203 -176 -471 -177q-201 0 -316.5 101.5t-115.5 265.5zM170 346q0 -109 80 -180.5t233 -71.5q225 0 389 146l-346 442q-356 -78 -356 -336zM530 1004q0 -109 68 -205 q178 35 256 90t78 176q0 78 -51.5 124t-130.5 46q-98 0 -159 -69.5t-61 -161.5z" />
<glyph unicode="'" horiz-adv-x="428" d="M248 858l39 371q6 57 26.5 80.5t61.5 23.5q59 0 80 -26q10 -13 10 -37t-10 -58l-117 -362q-14 -51 -43 -51q-31 0 -41 11q-7 8 -7 29q0 8 1 19z" />
<glyph unicode="(" horiz-adv-x="718" d="M80 246q0 246 94 484.5t262 406.5q195 195 377 194q70 0 70 -59q0 -12 -6.5 -25.5t-12.5 -20.5t-8 -7q-174 -10 -332 -168q-147 -147 -226 -365.5t-79 -439.5q0 -303 162 -465q63 -63 147 -88q12 -6 13 -37q0 -66 -68 -66q-96 0 -199 103q-194 195 -194 553z" />
<glyph unicode=")" horiz-adv-x="718" d="M-170 -348q0 12 6 25.5t12.5 20.5t8.5 7q174 10 331 168q147 147 226.5 365.5t79.5 439.5q0 303 -162 465q-63 63 -148 88q-12 6 -12 37q0 66 68 65q96 0 198 -102q195 -195 195 -553q0 -246 -94.5 -484.5t-262.5 -406.5q-195 -195 -376 -195q-70 1 -70 60z" />
<glyph unicode="*" horiz-adv-x="772" d="M166 1104l2 8q8 27 40 27q10 0 21 -2l215 -58l13 219q2 51 43 52h8q41 0 43 -52l8 -221l217 60q12 2 21 2q33 0 43 -27l2 -8q3 -8 2 -16q0 -28 -37 -41l-209 -80l123 -187q12 -20 12 -36q0 -19 -18 -31l-6 -4q-12 -8 -24 -9l-42 25l-141 176l-140 -176q-21 -24 -42 -24 l-23 8l-6 4q-18 12 -18 31q0 16 12 36l123 189l-209 78q-36 14 -36 40q0 8 3 17z" />
<glyph unicode="+" horiz-adv-x="1103" d="M106 522q0 47 25 72q14 14 49 14h336l72 334q14 63 59 64h17q51 0 51 -45q0 -9 -2 -19l-72 -334h326q59 0 59 -33q0 -47 -25 -71q-14 -14 -49 -15h-336l-75 -356q-14 -63 -60 -63h-16q-51 0 -51 44q0 9 2 19l76 356h-326q-60 0 -60 33z" />
<glyph unicode="," horiz-adv-x="428" d="M-119 -229l225 430q4 1 19 1h16q29 -1 60.5 -19.5t31.5 -49.5q0 -43 -38 -92l-252 -311q-4 -5 -12 -5q-11 0 -28 11q-23 14 -24 27q0 4 2 8z" />
<glyph unicode="-" horiz-adv-x="749" d="M92 469q0 47 25 72q16 16 51 16h434q61 0 62 -35q0 -47 -25 -71q-16 -16 -51 -17h-434q-62 0 -62 35z" />
<glyph unicode="." horiz-adv-x="428" d="M27 57q0 74 32 107q27 27 76 26q98 0 98 -69q0 -74 -32 -107q-27 -27 -76 -26q-98 -1 -98 69z" />
<glyph unicode="/" horiz-adv-x="661" d="M-154 -336q0 39 33 103l813 1564q4 0 27 1h2q21 0 45 -17q25 -18 25 -49q0 -39 -33 -103l-813 -1564q-4 0 -27 -1h-2q-21 0 -45 17q-25 18 -25 49z" />
<glyph unicode="0" horiz-adv-x="1288" d="M131 457q0 137 51 346q29 119 70 209t106.5 170t164 123t225.5 43q231 0 358 -133.5t127 -348.5q0 -137 -51 -346q-29 -119 -70 -209t-106.5 -170t-164 -123t-225.5 -43q-231 0 -358 133.5t-127 348.5zM270 457q0 -162 94.5 -262.5t251.5 -100.5q100 0 177 36 t125.5 103.5t78 137t52.5 166.5q45 186 45 329q0 162 -94.5 262.5t-251.5 100.5q-100 0 -177 -36t-125.5 -103.5t-78 -137t-52.5 -166.5q-45 -186 -45 -329z" />
<glyph unicode="1" horiz-adv-x="710" d="M182 1130q0 27 15.5 50.5t30 35t16.5 9.5q35 -51 116 -51q63 0 113.5 46t69.5 113h57q52 0 52 -46q0 -11 -3 -25l-256 -1207q-14 -63 -69 -63h-19q-52 0 -52 46q0 11 3 25l217 1031q-61 -61 -149 -62q-82 0 -117 35q-25 24 -25 63z" />
<glyph unicode="2" horiz-adv-x="1064" d="M14 94q0 203 133 336q70 70 164.5 117t235.5 98q225 82 311 148.5t86 199.5q0 100 -80 165t-217 65q-238 0 -350 -240q-2 -6 -22.5 -1t-40 25.5t-19.5 55.5q0 70 78 147q139 139 362 140q199 0 315.5 -96.5t116.5 -260.5q0 -100 -32.5 -175t-106.5 -130t-149.5 -91 t-206.5 -83q-139 -49 -216 -88t-132 -94q-80 -80 -88 -205h686q78 0 78 -51q0 -14 -7.5 -32.5t-14.5 -31t-9 -12.5h-819q-4 0 -17.5 13.5t-26 37t-12.5 43.5z" />
<glyph unicode="3" horiz-adv-x="1089" d="M-4 270q0 43 23.5 69t46 31t24.5 -1q25 -131 122 -202t257 -71q172 0 262 87t90 216q0 111 -81 176.5t-230 65.5h-94q-59 0 -60 33q0 47 25 71q14 14 49 15h107q381 0 381 260q0 94 -81 152.5t-202 58.5q-229 0 -359 -193q-2 -4 -19 3.5t-33.5 25.5t-16.5 39q0 49 55 104 q135 139 379 140q184 0 304 -84t120 -242q0 -127 -78 -222t-229 -118q104 -35 157.5 -109.5t53.5 -173.5q0 -76 -28 -148.5t-85 -136t-159.5 -102.5t-235.5 -39q-252 0 -381 129q-84 84 -84 166z" />
<glyph unicode="4" horiz-adv-x="1169" d="M53 475q0 59 70 129l670 649q82 80 149 80q99 0 99 -72q0 -13 -3 -28l-155 -729h170q63 0 63 -35q0 -47 -26 -78q-12 -14 -54 -14h-180l-68 -322q-8 -37 -22 -50t-47 -13h-14q-52 0 -52 48q0 11 2 23l66 314h-621q-4 0 -15 14.5t-21.5 39t-10.5 44.5zM190 502h562 l147 696z" />
<glyph unicode="5" horiz-adv-x="1081" d="M23 254q0 31 21.5 51.5t43 27.5t23.5 1q33 -109 128 -172.5t244 -63.5q166 0 267.5 94.5t101.5 247.5q0 254 -313 254q-170 0 -299 -71q-69 17 -70 74q0 14 4 30l107 514q16 84 96 84h715q2 0 5 -6t6 -16.5t3 -22.5q0 -31 -22.5 -56.5t-65.5 -25.5h-612l-91 -424 q115 43 234 43q205 0 326.5 -101.5t121.5 -266.5q0 -211 -140 -342.5t-378 -131.5q-262 0 -391 138q-65 67 -65 141z" />
<glyph unicode="6" horiz-adv-x="1177" d="M131 449q0 172 67.5 399t194.5 354q76 76 161 112t222 36q203 0 318 -115q59 -61 59 -119q0 -31 -19.5 -52.5t-39 -28.5t-21.5 -1q-90 197 -311 197q-350 0 -465 -524q152 121 358 120q193 0 310.5 -97t117.5 -271q0 -193 -139 -338.5t-352 -145.5q-209 0 -335 123.5 t-126 350.5zM262 444q0 -166 86 -256t246 -90q164 0 261 100.5t97 252.5q0 121 -80.5 191.5t-232.5 70.5q-205 0 -367 -144q-10 -57 -10 -125z" />
<glyph unicode="7" horiz-adv-x="1060" d="M170 68q0 39 51 104l774 1016h-696q-84 0 -84 55q0 14 7 34.5t15.5 34t10.5 13.5h823q6 0 20.5 -13.5t30 -41t15.5 -56.5q0 -47 -47 -108l-834 -1114q-1 -1 -5 -1q-6 0 -18 2q-20 3 -41.5 22.5t-21.5 52.5z" />
<glyph unicode="8" d="M61 330q0 131 95.5 231.5t257.5 136.5q-178 74 -178 256q0 164 134 280t343 116q188 0 312 -90.5t124 -237.5q0 -123 -82 -221.5t-231 -132.5q215 -88 215 -287q0 -172 -136.5 -289t-361.5 -117q-221 0 -356.5 96.5t-135.5 258.5zM201 338q0 -111 97 -178.5t259 -67.5 q164 0 259 81t95 208q0 106 -98 173t-266 67q-147 0 -246.5 -79t-99.5 -204zM375 961q0 -102 84 -161t227 -59q154 0 239 73t85 196q0 102 -87 162.5t-229 60.5q-147 0 -233 -75.5t-86 -196.5z" />
<glyph unicode="9" horiz-adv-x="1177" d="M100 209q0 31 19.5 52.5t39 28.5t21.5 1q90 -197 312 -197q344 0 460 504q-156 -121 -356.5 -121t-314 98.5t-113.5 280.5q0 201 139 347.5t355 146.5q209 0 334.5 -123t125.5 -350q0 -172 -67.5 -399.5t-194.5 -354.5q-76 -76 -161 -112t-222 -36q-203 0 -317 115 q-60 60 -60 119zM299 864q0 -129 78 -200.5t235 -71.5q203 0 365 143q14 78 14 146q0 166 -86 256t-246 90q-166 0 -263 -102.5t-97 -260.5z" />
<glyph unicode=":" horiz-adv-x="489" d="M57 57q0 74 33 107q27 27 76 26q98 0 98 -69q0 -74 -33 -107q-27 -27 -75 -26q-99 -1 -99 69zM205 754q0 74 33 106q27 27 75 27q98 0 99 -70q0 -74 -33 -106q-27 -27 -76 -27q-98 0 -98 70z" />
<glyph unicode=";" horiz-adv-x="489" d="M-88 -229l225 430q6 2 35 1t60.5 -19.5t31.5 -49.5q0 -43 -39 -92l-252 -311q-4 -5 -11 -5q-11 0 -29 11q-23 14 -23 27q0 4 2 8zM205 754q0 74 33 106q27 27 75 27q98 0 99 -70q0 -74 -33 -106q-27 -27 -76 -27q-98 0 -98 70z" />
<glyph unicode="&#x3c;" horiz-adv-x="958" d="M106 537q0 74 87 114l714 344q1 0 2 1q4 0 12 -7q9 -8 19 -24.5t10 -39.5q0 -49 -88 -91l-618 -291l473 -275q81 -45 80 -95q0 -26 -14 -45q-11 -15 -21 -23q-7 -5 -11 -4q-2 0 -3 1l-592 353q-50 31 -50 82z" />
<glyph unicode="=" horiz-adv-x="1103" d="M74 276q0 51 26 78q14 14 52 15h737q63 0 63 -33q0 -51 -26 -78q-14 -14 -52 -14h-737q-63 -1 -63 32zM174 741q0 51 27 78q14 14 51 15h737q63 0 64 -33q0 -51 -27 -78q-14 -14 -51 -14h-737q-64 -1 -64 32z" />
<glyph unicode="&#x3e;" horiz-adv-x="958" d="M35 172q0 49 88 92l618 291l-473 274q-81 45 -80 96v9q2 20 13.5 35.5t21.5 22.5q7 5 11 5q2 0 4 -2l591 -352q49 -31 50 -82q0 -74 -86 -115l-715 -344h-2q-4 0 -11 7q-9 8 -19.5 24.5t-10.5 38.5z" />
<glyph unicode="?" horiz-adv-x="948" d="M184 1051q0 82 86 168q131 131 326 131q182 0 292.5 -102.5t110.5 -258.5q0 -260 -323 -364q-119 -39 -167 -70t-48 -70q0 -51 51 -67q4 -2 -1 -16.5t-22.5 -29t-46.5 -14.5q-47 0 -79.5 34t-32.5 89q0 84 61.5 137.5t196.5 100.5q143 49 208.5 106.5t65.5 163.5 q0 100 -73.5 169t-200.5 69q-113 0 -193 -68.5t-123 -181.5q-2 -6 -23.5 0t-43 25.5t-21.5 48.5zM240 57q0 74 32 107q27 27 76 26q98 0 98 -69q0 -74 -32 -107q-27 -27 -76 -26q-98 -1 -98 69z" />
<glyph unicode="@" horiz-adv-x="1527" d="M135 575q0 324 216 549.5t528 225.5q279 0 446.5 -150.5t167.5 -400.5q0 -217 -94 -341t-252 -124q-186 0 -213 137q-78 -125 -236 -125q-102 0 -168.5 65.5t-66.5 180.5q0 145 95 261t235 116q66 0 119 -31t77 -82q25 102 105 102q12 0 23 -3t17.5 -7t6.5 -6l-76 -356 q-7 -30 -7 -55q0 -97 105 -97q104 0 166 96.5t62 264.5q0 201 -146.5 329.5t-376.5 128.5q-260 0 -444 -195.5t-184 -473.5q0 -225 152.5 -367.5t391.5 -142.5q180 0 316 88q39 25 69 24q16 0 32 -15t23 -31.5t1 -20.5q-74 -59 -195 -101.5t-256 -42.5q-289 0 -464 164 t-175 436zM592 606q0 -70 41 -111.5t100 -41.5q76 0 137.5 56t77.5 136l19 88q-37 129 -164 129q-94 0 -152.5 -79t-58.5 -177z" />
<glyph unicode="A" horiz-adv-x="1247" d="M-25 68q0 33 39 100l668 1124q29 47 88 47q84 0 96 -61l250 -1243q2 -6 -8 -15.5t-29.5 -17.5t-40.5 -8q-59 0 -73 76l-68 362h-573l-252 -438q-4 2 -26 -1q-3 0 -6 -1q-19 0 -40 17q-25 20 -25 59zM395 555h477l-116 625z" />
<glyph unicode="B" horiz-adv-x="1234" d="M74 92l243 1149q12 84 97 84h377q195 0 296 -77t101 -222q0 -266 -281 -350q115 -31 173.5 -102.5t58.5 -165.5q0 -182 -123 -295t-395 -113h-471q-45 0 -66 25q-14 16 -14 41q1 12 4 26zM219 125h412q193 0 278.5 69.5t85.5 213.5q0 96 -73.5 149t-214.5 53h-383z M348 733h369q150 0 238.5 77t88.5 198q-6 193 -268 192h-327z" />
<glyph unicode="C" horiz-adv-x="1331" d="M125 547q0 330 213 566.5t524 236.5q250 0 395 -146q86 -86 86 -164q0 -33 -20 -54t-41.5 -26.5t-30.5 1.5q-98 268 -395 268q-248 0 -416 -194.5t-168 -467.5q0 -215 124 -342t325 -127q283 0 424 215q2 4 19.5 -3t33.5 -25.5t16 -44.5q0 -49 -59 -109 q-66 -66 -182.5 -111t-249.5 -45q-272 0 -435 155t-163 417z" />
<glyph unicode="D" horiz-adv-x="1351" d="M74 92l243 1149q12 84 97 84h225q309 0 482 -144.5t173 -406.5q0 -338 -214 -556t-611 -218h-319q-45 0 -66 25q-14 16 -14 41q1 12 4 26zM219 123h270q324 0 491 179t167 452q0 211 -136 329.5t-382 118.5h-180z" />
<glyph unicode="E" horiz-adv-x="1179" d="M74 92l243 1149q16 84 97 84h784q63 0 64 -35q0 -47 -27 -78q-12 -14 -53 -14h-733l-99 -457h580q61 0 61 -32q0 -51 -24 -76q-14 -14 -52 -15h-591l-105 -491h735q63 0 64 -35q0 -47 -27 -78q-12 -14 -53 -14h-788q-45 0 -66 25q-14 16 -14 41q1 12 4 26z" />
<glyph unicode="F" horiz-adv-x="1091" d="M68 63l249 1178q12 84 97 84h733q63 0 63 -35q0 -47 -26 -78q-12 -14 -54 -14h-681l-107 -500h508q61 0 61 -32q0 -51 -24 -76q-14 -14 -51 -15h-521l-110 -520q-14 -63 -70 -63h-18q-52 0 -53 46q1 11 4 25z" />
<glyph unicode="G" horiz-adv-x="1445" d="M125 541q0 211 94 396t267 299t386 114q268 0 422 -154q74 -74 74 -141q0 -39 -23.5 -61.5t-46 -25.5t-24.5 1q-39 113 -148.5 185.5t-255.5 72.5q-258 0 -428 -198t-170 -474q0 -219 122 -339t327 -120q213 0 338 125q61 61 87.5 118.5t59.5 211.5h-372q-63 0 -64 33 q0 51 27 78q14 14 51 14h414q45 0 65 -25q14 -16 14 -41q0 -12 -4 -26l-125 -586q0 -6 -28 -6q-73 0 -73 81q0 26 7 60l6 29q-53 -82 -161.5 -134.5t-243.5 -52.5q-268 0 -431 151t-163 415z" />
<glyph unicode="H" horiz-adv-x="1366" d="M68 63l256 1207q14 63 69 63h19q52 0 52 -46q0 -11 -3 -25l-113 -535h772l115 543q14 63 70 63h18q52 0 52 -46q0 -11 -3 -25l-256 -1207q-14 -63 -69 -63h-19q-52 0 -52 46q0 11 3 25l115 537h-772l-117 -545q-14 -63 -70 -63h-18q-52 0 -53 46q1 11 4 25z" />
<glyph unicode="I" horiz-adv-x="495" d="M90 63l256 1207q14 63 70 63h18q52 0 53 -46q0 -11 -4 -25l-256 -1207q-14 -63 -69 -63h-19q-52 0 -52 46q0 11 3 25z" />
<glyph unicode="J" horiz-adv-x="894" d="M12 164q0 31 19.5 52.5t39 29.5t21.5 2q31 -68 94.5 -110t139.5 -42q113 0 176 70t98 231l186 873q14 63 70 63h18q52 0 53 -46q0 -11 -3 -25l-189 -883q-45 -207 -144 -305.5t-267 -98.5q-164 0 -263 99q-49 49 -49 90z" />
<glyph unicode="K" horiz-adv-x="1118" d="M68 63l256 1207q14 63 69 63h19q52 0 52 -46q0 -11 -3 -25l-117 -553l789 641q1 1 1 0q4 0 16 -4q15 -6 30.5 -22.5t15.5 -39.5q0 -29 -15.5 -50.5t-58.5 -55.5l-633 -506l330 -434q70 -94 109 -124t92 -34q2 0 3 -9.5t-3 -22.5t-13.5 -26.5t-32 -22.5t-52.5 -9 q-51 0 -98.5 42t-133.5 158l-354 482l-131 -617q-8 -35 -23.5 -49t-46.5 -14h-18q-52 0 -53 46q1 11 4 25z" />
<glyph unicode="L" horiz-adv-x="1024" d="M74 92l250 1178q14 63 69 63h19q52 0 52 -46q0 -11 -3 -25l-242 -1135h631q63 0 63 -35q0 -47 -26 -78q-12 -14 -53 -14h-684q-45 0 -66 25q-14 16 -14 41q1 12 4 26z" />
<glyph unicode="M" horiz-adv-x="1517" d="M68 63l249 1176q20 94 113 94h33q49 0 67.5 -22.5t32.5 -81.5l182 -772l517 772q43 63 69.5 83.5t71.5 20.5h37q45 0 65 -28q15 -20 15 -48q0 -11 -2 -22l-250 -1180q-14 -63 -68 -63h-16q-50 0 -51 45q0 12 4 26l235 1111l-514 -762q-57 -82 -129 -82q-53 0 -75.5 23.5 t-35.5 72.5l-182 748l-237 -1119q-14 -63 -68 -63h-16q-50 0 -51 45q1 11 4 26z" />
<glyph unicode="N" horiz-adv-x="1382" d="M68 63l249 1176q20 94 99 94h35q33 0 50 -16.5t38 -56.5l495 -1053l226 1063q14 63 67 63h14q50 0 51 -45q0 -12 -3 -26l-252 -1186q-18 -84 -90 -84h-15q-49 0 -86 74l-516 1093l-233 -1104q-14 -63 -68 -63h-14q-50 0 -51 45q1 11 4 26z" />
<glyph unicode="O" horiz-adv-x="1499" d="M125 551q0 340 223 569.5t510 229.5q268 0 429 -162t161 -412q0 -340 -223.5 -569.5t-509.5 -229.5q-268 0 -429 162t-161 412zM272 561q0 -199 122 -331t335 -132q221 0 396 191.5t175 476.5q0 199 -121.5 331t-334.5 132q-221 0 -396.5 -191.5t-175.5 -476.5z" />
<glyph unicode="P" horiz-adv-x="1132" d="M68 63l249 1178q12 84 97 84h303q211 0 325.5 -89t114.5 -253q0 -223 -137 -345t-391 -122h-326l-98 -461q-14 -63 -70 -63h-18q-52 0 -53 46q1 11 4 25zM330 639h325q168 0 263.5 86t95.5 240q0 236 -305 235h-260z" />
<glyph unicode="Q" horiz-adv-x="1523" d="M125 551q0 227 106.5 412.5t276.5 286t358 100.5q270 0 426 -160t156 -414q0 -354 -246 -590l12 -14q74 -92 136 -104q0 -4 2 -24.5t-16.5 -44.5t-53.5 -24q-47 0 -79 24t-85 93l-10 14q-186 -129 -401 -129q-270 0 -426 160t-156 414zM272 561q0 -199 120 -331t329 -132 q164 0 307 105l-207 270q-20 29 -20 53q0 16 22.5 37t40.5 21q31 0 56 -31l33 -44l66 -86l73 -97l28 -39q180 195 180 479q0 199 -119.5 331t-328.5 132q-225 0 -402.5 -190.5t-177.5 -477.5z" />
<glyph unicode="R" horiz-adv-x="1161" d="M68 63l249 1178q12 84 97 84h323q215 0 328 -83t113 -243q0 -207 -134.5 -324.5t-365.5 -117.5h-23l183 -315q51 -88 89 -121t105 -33q2 0 3 -10t-3 -24.5t-13 -29t-31.5 -24.5t-53.5 -10q-57 0 -105.5 40t-115.5 158l-207 369h-195l-106 -502q-14 -63 -70 -63h-18 q-52 0 -53 46q1 11 4 25zM336 676h346q166 0 258 82t92 227q0 106 -77.5 161.5t-225.5 55.5h-280z" />
<glyph unicode="S" horiz-adv-x="1091" d="M23 272q0 31 21.5 51.5t42 25.5t22.5 -1q47 -119 152.5 -185.5t262.5 -66.5q156 0 235 64.5t79 183.5q0 49 -19.5 88t-68 72t-87 51t-116.5 51q-80 33 -127 58.5t-104.5 69.5t-85 105.5t-27.5 143.5q0 158 121.5 262.5t322.5 104.5q254 0 385 -131q66 -66 66 -136 q0 -31 -20.5 -50t-41 -24t-22.5 1q-92 219 -373 219q-131 0 -214 -65.5t-83 -166.5q0 -55 19.5 -96t67.5 -74.5t88 -54t124 -55.5l100 -44q35 -15 87.5 -49t79 -67t48 -85t21.5 -116q0 -174 -122 -277.5t-341 -103.5q-268 0 -418 150q-75 75 -75 147z" />
<glyph unicode="T" horiz-adv-x="1196" d="M211 1233q0 47 27 78q12 14 53 14h960q63 0 64 -35q0 -47 -27 -78q-12 -14 -53 -14h-414l-243 -1143q-14 -63 -70 -63h-19q-52 0 -52 46q0 11 3 25l242 1135h-408q-63 0 -63 35z" />
<glyph unicode="U" horiz-adv-x="1308" d="M160 584l145 686q14 63 70 63h18q52 0 53 -46q0 -11 -4 -25l-145 -689q-18 -86 -18 -155q0 -123 55 -199q86 -119 297 -119q324 0 409 406l162 764q14 63 70 63h16q52 0 53 -46q0 -11 -4 -25l-166 -785q-106 -502 -548 -502q-274 0 -401 157q-84 104 -84 270q1 83 22 182 z" />
<glyph unicode="V" horiz-adv-x="1228" d="M207 1292q-2 6 8 15.5t29.5 17.5t40.5 8q59 0 73 -76l197 -1110l672 1186l10 2q10 0 23.5 -3t28 -9t24.5 -22.5t10 -40.5q0 -33 -39 -101l-655 -1124q-29 -47 -88 -47q-84 0 -97 61z" />
<glyph unicode="W" horiz-adv-x="1851" d="M287 1305q0 8 22.5 19t44.5 11q35 0 55.5 -23.5t20.5 -64.5l16 -1122l498 958q18 39 42 53.5t69 14.5q96 0 104 -90l84 -932l535 1200q0 2 10 3t25.5 -1t31 -8t25.5 -22.5t10 -43.5q0 -33 -31 -96l-516 -1128q-23 -47 -104 -47q-94 0 -101 69l-86 959l-518 -977 q-16 -31 -35.5 -41t-64.5 -10q-53 0 -74.5 16t-23.5 51z" />
<glyph unicode="X" horiz-adv-x="1171" d="M-43 49q0 37 53 90l525 533l-281 604q-2 6 5 19.5t26.5 25.5t44.5 12q47 0 71 -55l238 -528l567 600q1 1 3 0q5 0 19 -3q19 -5 38.5 -23.5t19.5 -47.5q0 -37 -53 -90l-533 -541l181 -387q49 -104 83.5 -136t100.5 -32q2 0 3 -12t-3 -28.5t-12.5 -33t-30 -29t-51.5 -12.5 q-66 0 -111 51.5t-98 170.5l-166 370l-559 -592q-1 -1 -3 0q-5 0 -19 3q-19 5 -38.5 23.5t-19.5 47.5z" />
<glyph unicode="Y" horiz-adv-x="1124" d="M186 1280q-2 6 7.5 18.5t31 23.5t43.5 11q47 0 68 -53l260 -602l559 659q1 1 3 1q5 0 20 -4q20 -5 40.5 -23.5t20.5 -48.5q0 -39 -59 -107l-537 -612l-102 -488q-14 -63 -76 -63h-19q-48 0 -47 41q0 10 2 22l107 502z" />
<glyph unicode="Z" horiz-adv-x="1155" d="M6 98q0 59 70 129l971 971h-734q-78 0 -77 51q0 14 7 32.5t14 31t9 12.5h887q4 0 15.5 -14.5t21.5 -39t10 -44.5q0 -59 -70 -129l-970 -971h778q78 0 78 -51q0 -14 -7.5 -32.5t-14.5 -31t-9 -12.5h-932q-4 0 -15 14.5t-21.5 39t-10.5 44.5z" />
<glyph unicode="[" horiz-adv-x="661" d="M-6 -311l330 1552q18 84 96 84h309q59 0 59 -33q0 -49 -24 -73q-14 -14 -49 -15h-273l-315 -1487h262q59 0 60 -32q0 -49 -25 -74q-14 -14 -49 -14h-305q-45 0 -66 24q-14 16 -14 41q1 13 4 27z" />
<glyph unicode="\" horiz-adv-x="661" d="M197 1188q-2 19 -2 35q0 110 71 110q14 0 27.5 -3t19.5 -7t6 -6l150 -1577q2 -19 2 -36q0 -110 -72 -110q-14 0 -27.5 3.5t-19.5 7.5t-6 6z" />
<glyph unicode="]" horiz-adv-x="661" d="M-139 -371q0 49 24 74q14 14 49 14h273l315 1487h-262q-59 0 -59 33q0 49 24 74q14 14 49 14h306q45 0 65 -25q14 -16 14 -40q0 -12 -4 -27l-329 -1552q-18 -84 -97 -84h-309q-59 -1 -59 32z" />
<glyph unicode="^" horiz-adv-x="1024" d="M348 948q0 61 137 176q41 35 87 69t73 51.5t31 17.5t23.5 -18.5t49 -50.5t54.5 -63q80 -104 80 -157q0 -59 -49 -60q-25 0 -49.5 28t-65.5 97l-60 105l-104 -109q-117 -121 -168 -121q-39 0 -39 35z" />
<glyph unicode="_" horiz-adv-x="952" d="M-88 -92q0 51 25 76q16 16 53 16h755q63 0 64 -35q0 -51 -25 -76q-16 -16 -53 -16h-756q-63 0 -63 35z" />
<glyph unicode="`" horiz-adv-x="1024" d="M420 1382q0 25 20.5 42.5t44.5 17.5q43 0 93 -43q55 -45 109 -109.5t84 -109.5q25 -37 25 -48q0 -2 -1 -4q-2 -2 -7 -1q-13 0 -51 13q-51 17 -124.5 56t-131.5 86q-61 51 -61 100z" />
<glyph unicode="a" d="M66 389q0 236 159.5 423t392.5 187q119 0 211.5 -56t135.5 -148l10 51q14 74 39.5 105.5t66.5 31.5q12 0 24.5 -4t20 -7t7.5 -5l-162 -760q-8 -35 -8 -59q0 -28 10 -43q18 -28 86 -29q4 0 1 -23.5t-25.5 -46t-67.5 -22.5q-82 0 -116 52q-23 35 -23 90q0 27 6 58 q-137 -209 -377 -209q-166 0 -278.5 109.5t-112.5 304.5zM201 391q0 -137 78.5 -218t193.5 -81q150 0 270.5 110.5t151.5 264.5l35 162q-74 254 -320 254q-182 0 -295.5 -152t-113.5 -340z" />
<glyph unicode="b" horiz-adv-x="1159" d="M35 8l280 1323q8 35 21.5 49.5t40.5 14.5h16q57 0 57 -46q0 -8 -1 -18l-113 -524q141 193 358 192q166 0 284 -114.5t118 -317.5q0 -233 -151.5 -412.5t-381.5 -179.5q-123 0 -215 60.5t-141 159.5l-14 -68q-14 -74 -39 -104.5t-68 -30.5q-12 0 -24.5 4t-19.5 7t-7 5z M262 453q-6 -34 -6 -66q0 -104 67 -186q87 -109 248 -109q178 0 284 143.5t106 331.5q0 145 -83 230.5t-200 85.5t-218.5 -67.5t-158.5 -178.5z" />
<glyph unicode="c" horiz-adv-x="1060" d="M63 428q0 227 162 398t391 171q215 0 338 -123q82 -82 82 -167q0 -39 -24.5 -60.5t-47 -19.5t-26.5 4q-20 111 -103 179.5t-214 68.5q-180 0 -300 -134.5t-120 -308.5q0 -152 92 -246t246 -94q201 0 317 185q2 4 20.5 -1.5t37 -21.5t18.5 -41q0 -47 -64 -111 q-55 -55 -146 -93t-196 -38q-199 0 -331 123t-132 330z" />
<glyph unicode="d" d="M72 408q0 233 151.5 412t380.5 179q244 0 361 -198l112 530q14 63 62 64h16q57 0 57 -46q0 -8 -2 -18l-239 -1124q-8 -34 -8 -58q0 -27 10 -43q18 -29 86 -30q4 0 1 -23.5t-25.5 -46t-67.5 -22.5q-78 0 -113 48q-26 36 -26 93q0 20 3 43q-141 -193 -358 -193 q-166 0 -283.5 115t-117.5 318zM207 408q0 -145 83 -230.5t199 -85.5q143 0 256 101.5t144 252.5l39 179q-45 129 -121 193.5t-211 64.5q-178 0 -283.5 -143.5t-105.5 -331.5z" />
<glyph unicode="e" horiz-adv-x="1034" d="M57 373q0 264 177.5 445t437.5 181q162 0 255 -70.5t93 -187.5q0 -156 -127 -233.5t-440 -77.5q-119 0 -256 14q-4 -41 -4 -63q0 -133 75.5 -212t216.5 -79q209 0 330 162q2 4 19.5 -2t34 -22.5t16.5 -39.5q0 -41 -45 -86q-127 -127 -359 -127q-203 0 -313.5 110 t-110.5 288zM223 557q115 -14 217 -14q444 0 445 196q0 59 -57.5 101.5t-161.5 42.5q-150 0 -271 -92.5t-172 -233.5z" />
<glyph unicode="f" horiz-adv-x="675" d="M109 889q0 47 24 72q14 14 49 14h148l26 119q68 317 318 317q115 0 172 -57q29 -29 28 -66q0 -20 -12 -38.5t-24.5 -27t-14.5 -3.5q-51 74 -155 73q-141 0 -187 -217l-22 -100h194q59 0 60 -33q0 -47 -25 -72q-14 -14 -49 -14h-203l-168 -801q-14 -63 -61 -63h-17 q-57 0 -57 45q0 8 2 18l170 801h-137q-59 0 -59 33z" />
<glyph unicode="g" d="M0 -152q0 41 23.5 66t47 31t25.5 0q63 -233 350 -234q285 0 353 318l35 161q-137 -188 -359 -188q-166 0 -285.5 114.5t-119.5 317.5q0 217 161.5 391t386.5 174q119 0 211.5 -56t135.5 -148l10 51q14 74 39.5 105.5t66.5 31.5q12 0 24.5 -4t20 -7t7.5 -5l-203 -951 q-43 -205 -169 -315.5t-327 -110.5q-238 0 -364 127q-70 70 -70 131zM205 434q0 -143 85 -229t202 -86q139 0 252.5 93t144.5 237l41 182q-76 252 -320 252q-172 0 -288.5 -138.5t-116.5 -310.5z" />
<glyph unicode="h" horiz-adv-x="1099" d="M45 55l270 1276q14 63 62 64h16q57 0 57 -46q0 -8 -1 -18l-111 -518q53 88 139.5 137t184.5 49q158 0 250 -92t92 -237q0 -82 -60 -299q-49 -171 -49 -221q0 -39 20.5 -55.5t65.5 -20.5q4 0 1 -22.5t-25.5 -45t-63.5 -22.5q-61 0 -96 38.5t-35 106.5q0 66 53 260 q51 182 51 256q0 106 -58 167.5t-165 61.5q-111 0 -190.5 -57t-151.5 -178l-123 -584q-14 -63 -61 -63h-17q-57 0 -57 45q0 8 2 18z" />
<glyph unicode="i" horiz-adv-x="428" d="M88 205l152 715q14 63 61 63h16q57 0 58 -45q0 -8 -2 -18l-152 -713q-7 -33 -7 -57q0 -30 11 -46q20 -29 94 -28q4 0 1 -23.5t-26.5 -46t-70.5 -22.5q-145 0 -145 139q0 37 10 82zM299 1288q0 43 24.5 74t69.5 31q90 0 90 -68q0 -43 -24.5 -73.5t-69.5 -30.5 q-90 -1 -90 67z" />
<glyph unicode="j" horiz-adv-x="428" d="M-338 -303q0 23 13.5 44t26.5 31.5t15 8.5q51 -78 148 -78q61 0 98 38t55 132l222 1047q14 63 61 63h16q57 0 58 -45q0 -8 -2 -18l-228 -1072q-55 -264 -284 -264q-115 0 -170 56q-29 28 -29 57zM299 1288q0 43 24.5 74t69.5 31q90 0 90 -68q0 -43 -24.5 -73.5 t-69.5 -30.5q-90 -1 -90 67z" />
<glyph unicode="k" horiz-adv-x="903" d="M45 55l270 1276q14 63 62 64h16q57 0 57 -46q0 -8 -1 -18l-170 -799l579 467q2 2 16.5 -3t30 -21.5t15.5 -42.5q0 -43 -72 -101l-424 -335l174 -256q66 -96 101.5 -120t109.5 -28q2 0 2 -11t-4 -27.5t-13.5 -32t-31 -26.5t-51.5 -11q-61 0 -104.5 39.5t-137.5 181.5 l-197 297l-94 -447q-14 -63 -61 -63h-17q-57 0 -57 45q0 8 2 18z" />
<glyph unicode="l" horiz-adv-x="428" d="M88 205l240 1126q14 63 61 64h17q57 0 57 -46q0 -8 -2 -18l-240 -1124q-7 -33 -7 -57q0 -30 11 -46q20 -29 94 -28q4 0 1 -23.5t-26.5 -46t-70.5 -22.5q-145 0 -145 139q0 37 10 82z" />
<glyph unicode="m" horiz-adv-x="1751" d="M45 55l197 922q0 6 28 6q79 0 80 -88q0 -23 -6 -53l-2 -6q117 164 309 163q113 0 194 -57t109 -156q135 213 373 213q145 0 236.5 -93t91.5 -236q0 -82 -60 -299q-49 -172 -49 -222q0 -39 20.5 -55t65.5 -20q4 0 1 -22.5t-25.5 -45t-63.5 -22.5q-61 0 -96 38.5t-35 106.5 q0 66 53 260q51 182 52 256q0 104 -57.5 166.5t-151.5 62.5q-104 0 -179 -50t-149 -165l-127 -604q-12 -63 -74 -63h-14q-47 0 -47 43q0 9 2 20l106 506q10 47 10 88q0 79 -36 137q-55 88 -168 88q-104 0 -179 -50t-149 -165l-127 -604q-12 -63 -74 -63h-14q-47 0 -47 43 q0 9 2 20z" />
<glyph unicode="n" horiz-adv-x="1099" d="M45 55l197 922q0 6 28 6q79 0 80 -88q0 -23 -6 -53l-6 -27q118 184 324 184q158 0 250 -92t92 -237q0 -82 -60 -299q-49 -172 -49 -221q0 -39 20.5 -55.5t65.5 -20.5q4 0 1 -22.5t-25.5 -45t-63.5 -22.5q-61 0 -96 38.5t-35 106.5q0 66 53 260q51 182 51 256 q0 106 -58 167.5t-165 61.5q-111 0 -190.5 -57t-151.5 -178l-123 -584q-14 -63 -61 -63h-17q-57 0 -57 45q0 8 2 18z" />
<glyph unicode="o" horiz-adv-x="1126" d="M66 428q0 231 157.5 401t390.5 170q188 0 318.5 -127t130.5 -325q0 -231 -157.5 -401.5t-391.5 -170.5q-188 0 -318 127t-130 326zM201 432q0 -145 93 -242.5t228 -97.5q168 0 287 134t119 317q0 145 -93.5 242.5t-228.5 97.5q-168 0 -286.5 -134.5t-118.5 -316.5z" />
<glyph unicode="p" horiz-adv-x="1159" d="M-39 -340l281 1317q0 6 28 6q79 0 80 -88q0 -23 -6 -53l-6 -35q141 193 356 192q166 0 284 -114.5t118 -317.5q0 -233 -151.5 -412.5t-381.5 -179.5q-127 0 -221 63.5t-135 156.5l-113 -535q-14 -63 -61 -63h-17q-57 0 -57 45q0 8 2 18zM262 453q-6 -34 -6 -66 q0 -104 67 -186q87 -109 248 -109q178 0 284 143.5t106 331.5q0 145 -83 230.5t-200 85.5t-218.5 -67.5t-158.5 -178.5z" />
<glyph unicode="q" d="M72 408q0 233 151.5 412t380.5 179q121 0 214 -53t147 -145l10 45q14 74 39.5 105.5t66.5 31.5q12 0 24.5 -4t20 -7t7.5 -5l-279 -1307q-14 -63 -61 -63h-17q-57 0 -57 45q0 8 2 18l108 508q-141 -193 -356 -193q-166 0 -283.5 115t-117.5 318zM207 408q0 -145 83 -230.5 t199 -85.5q143 0 256 101.5t144 252.5l39 179q-45 129 -121 193.5t-211 64.5q-178 0 -283.5 -143.5t-105.5 -331.5z" />
<glyph unicode="r" horiz-adv-x="692" d="M45 55l197 922q0 6 28 6q79 0 80 -88q0 -23 -6 -53l-8 -39q102 197 274 196q59 0 100.5 -25.5t41.5 -66.5q0 -29 -12.5 -51t-26 -30.5t-15.5 -6.5q-49 53 -127 53q-113 0 -194.5 -129t-126.5 -346l-72 -342q-14 -63 -61 -63h-17q-57 0 -57 45q0 8 2 18z" />
<glyph unicode="s" horiz-adv-x="915" d="M8 195q0 27 17.5 47t36 27t20.5 3q111 -184 346 -184q113 0 175.5 45t62.5 121q0 61 -53.5 96t-180.5 78q-70 25 -108.5 42t-89 50t-74 80t-23.5 111q0 127 102.5 207.5t262.5 80.5q209 0 323 -114q49 -49 49 -99q0 -27 -18 -46t-36.5 -24t-22.5 1q-39 76 -122 123 t-183 47q-106 0 -166 -47t-60 -113t56.5 -103.5t185.5 -82.5q66 -23 105.5 -41.5t88 -50t71 -75.5t22.5 -104q0 -135 -100.5 -215t-274.5 -80q-236 0 -363 127q-49 50 -49 93z" />
<glyph unicode="t" horiz-adv-x="698" d="M123 889q0 47 24 72q14 14 50 14h94l20 96q14 74 40 105.5t69 31.5q12 0 24.5 -4t19.5 -7t7 -5l-47 -217h246q59 0 59 -33q0 -47 -24 -72q-14 -14 -50 -14h-256l-112 -526q-12 -54 -12 -96q0 -144 137 -144q84 0 135 59q2 2 9 -5t14.5 -23.5t7.5 -32.5q0 -35 -29 -63 q-49 -49 -158 -50q-141 0 -207 92q-42 58 -42 149q0 51 14 114l110 526h-84q-59 0 -59 33z" />
<glyph unicode="u" horiz-adv-x="1099" d="M113 424l104 496q12 63 62 63h16q57 0 57 -45q0 -8 -2 -18l-106 -506q-11 -50 -11 -93q0 -79 36 -135q56 -86 186 -86q111 0 190.5 57.5t151.5 178.5l123 584q12 63 61 63h16q57 0 58 -45q0 -8 -2 -18l-152 -713q-8 -35 -8 -59q0 -28 10 -43q18 -28 86 -29q4 0 1 -23.5 t-25.5 -46t-67.5 -22.5q-138 0 -138 138q0 20 3 42q-117 -188 -326 -189q-193 0 -279 125q-58 84 -59 201q1 57 15 123z" />
<glyph unicode="v" horiz-adv-x="948" d="M45 888q0 11 3 26.5t11.5 31t29 26.5t50.5 11q66 0 109 -43q63 -63 88 -276l61 -529l500 846q4 -2 24.5 0t43 -15.5t22.5 -50t-37 -94.5l-461 -755q-29 -45 -52 -60.5t-62 -15.5q-82 0 -94 98l-76 588q-14 115 -50 158t-108 43q-2 0 -2 11z" />
<glyph unicode="w" horiz-adv-x="1423" d="M81 896q0 9 4 23q5 15 15.5 29.5t33 24.5t54.5 10q59 0 99 -39q68 -68 68 -258q0 -11 -1 -22l-8 -523l309 619q23 45 50.5 60.5t70.5 15.5q94 0 103 -99l53 -598l393 842l10 2q8 0 20.5 -2t26 -8t24.5 -21.5t13 -36.5q0 -3 1 -7q0 -29 -27 -87l-367 -755 q-23 -45 -48.5 -60.5t-66.5 -15.5q-82 0 -94 98l-65 586l-316 -608q-25 -47 -49.5 -61.5t-67.5 -14.5q-96 0 -96 98l2 588q0 119 -32.5 161t-108.5 46q-3 -1 -3 13z" />
<glyph unicode="x" horiz-adv-x="952" d="M-23 49q0 39 62 101l340 333l-234 449q-2 4 4.5 15t23.5 23.5t42 12.5q35 0 56.5 -19.5t43.5 -66.5l160 -340l428 436q1 1 3 1q5 0 17 -4q17 -5 35.5 -22.5t18.5 -41.5q0 -39 -62 -101l-372 -366l100 -191q55 -104 95 -134t120 -34q2 0 3 -11t-2 -27.5t-11 -32 t-28.5 -26.5t-51.5 -11q-78 0 -132 52t-130 214l-60 125l-395 -401q-1 -1 -2 -1q-5 0 -17 4q-17 5 -36 22t-19 42z" />
<glyph unicode="y" horiz-adv-x="950" d="M-193 -313q0 20 12.5 37.5t26 26.5t17.5 5q18 -23 53 -38t59 -15q63 0 133 62.5t189 236.5l33 47q-61 8 -72 88l-57 539q-10 106 -47 153.5t-107 47.5q-2 0 -2 11t3 26.5t12.5 31t32 26.5t57.5 11q154 0 182 -319l49 -543l524 860q4 -2 23.5 0t42 -15.5t22.5 -50.5 q0 -31 -39 -94l-528 -846q-145 -231 -238.5 -312t-203.5 -81q-104 0 -152 47q-25 25 -25 58z" />
<glyph unicode="z" horiz-adv-x="968" d="M16 78q0 51 56 104l725 678h-549q-70 0 -70 47q0 12 6 28.5t12.5 28t8.5 11.5h696q4 0 12.5 -11.5t16.5 -31t8 -35.5q0 -51 -55 -104l-725 -678h567q70 0 70 -47q0 -12 -6.5 -28.5t-12.5 -28t-8 -11.5h-715q-4 0 -12 11.5t-16.5 31t-8.5 35.5z" />
<glyph unicode="{" horiz-adv-x="839" d="M49 446q0 76 39 115q18 18 82 43l147 58q74 328 254 507q162 162 330 162q27 0 46.5 -15.5t19.5 -43.5q0 -12 -6.5 -25.5t-12.5 -20.5t-8 -7q-70 -4 -150.5 -43t-138.5 -97q-78 -78 -126 -193.5t-91 -305.5l-266 -105l213 -153q-19 -117 -19 -214q0 -228 109 -337 q53 -53 141 -78q12 -6 13 -37q0 -66 -68 -66q-90 0 -178 88q-153 153 -153 435q0 72 10 151l-119 86q-43 31 -55.5 49t-12.5 47z" />
<glyph unicode="|" horiz-adv-x="497" d="M8 -332l340 1602q14 63 74 63h12q29 0 41 -19q7 -12 8 -28q0 -11 -4 -24l-340 -1602q-14 -63 -73 -63h-13q-49 0 -48 44q0 12 3 27z" />
<glyph unicode="}" horiz-adv-x="839" d="M-139 -350q0 12 6 25.5t12 20.5t8 7q70 4 151 43t138 96q78 78 126 194t91 306l266 104l-213 154q19 117 20 213q0 228 -110 338q-53 53 -141 78q-12 6 -12 37q0 66 67 65q90 0 179 -88q153 -153 153 -434q0 -72 -10 -152l119 -86q43 -31 55 -49t12 -47q0 -76 -39 -115 q-18 -18 -82 -43l-147 -57q-74 -328 -254 -508q-162 -162 -330 -162q-27 0 -46 15.5t-19 44.5z" />
<glyph unicode="~" horiz-adv-x="1024" d="M205 385q0 70 51 133.5t113 63.5q51 0 128.5 -44t155.5 -120q63 150 110.5 149.5t47.5 -41.5q0 -70 -51 -133t-113 -63q-51 0 -129 44t-156 120q-63 -150 -110 -150t-47 41z" />
<glyph unicode="&#xa1;" horiz-adv-x="505" d="M82 82l225 840q10 41 35 41q31 0 39 -12.5t4 -45.5l-133 -839q-8 -43 -25.5 -58.5t-52.5 -15.5q-61 0 -84 18q-14 11 -14 36q0 15 6 36zM311 1204q0 74 33 107q27 27 76 26q98 0 98 -69q0 -74 -33 -107q-27 -27 -75 -26q-99 -1 -99 69z" />
<glyph unicode="&#xa2;" horiz-adv-x="1103" d="M119 518q0 225 160.5 396t388.5 173l41 195q14 63 57 64h12q53 0 53 -45q0 -9 -2 -19l-43 -205q135 -25 224 -112q82 -82 82 -168q0 -39 -25 -60.5t-47.5 -19.5t-26.5 4q-16 92 -77.5 156.5t-157.5 85.5l-166 -779h2q199 0 317 187q2 4 20.5 -1t37 -21.5t18.5 -41.5 q0 -47 -63 -110q-55 -55 -146.5 -93t-195.5 -38h-11l-43 -203q-14 -63 -57 -64h-12q-53 0 -53 45q0 9 2 19q2 14 7 37l15 69q10 47 16 80l7 31q-150 37 -242 151.5t-92 286.5zM256 526q0 -121 61.5 -209t167.5 -118l164 770q-170 -10 -281.5 -143.5t-111.5 -299.5z" />
<glyph unicode="&#xa3;" horiz-adv-x="1114" d="M-14 35q0 47 26 78q12 14 54 14h108l119 412h-162q-61 0 -61 34q0 47 24 72q16 16 51 17h183l65 231q70 248 171.5 352.5t265 104.5t257.5 -95q66 -66 66 -135q0 -41 -23.5 -64.5t-45.5 -23.5h-25q-45 199 -238 199q-102 0 -169.5 -80t-125.5 -277l-61 -212h338 q61 0 61 -35q0 -47 -24 -72q-16 -16 -52 -16h-358l-119 -412h635q78 0 78 -51q0 -14 -7 -32.5t-14.5 -31t-9.5 -12.5h-944q-63 0 -63 35z" />
<glyph unicode="&#xa4;" horiz-adv-x="1282" d="M74 479q0 47 24 72q14 14 49 14h136q8 88 39 205h-119q-59 0 -60 33q0 47 25 71q14 14 49 15h143q76 190 183 297q164 164 395 164q190 0 307 -117q72 -72 72 -164q0 -37 -23.5 -61.5t-45 -25.5t-25.5 1q-59 250 -301 250q-164 0 -285 -121q-80 -80 -139 -223h442 q59 0 59 -33q0 -47 -24 -72q-14 -14 -49 -14h-467q-29 -98 -39 -205h450q59 0 60 -33q0 -47 -25 -71q-14 -14 -49 -15h-438q10 -154 97 -253t230 -99q199 0 336 201q2 4 18.5 -2t32 -24.5t15.5 -41.5q0 -51 -66 -116q-57 -57 -148 -96.5t-183 -39.5q-223 0 -344 126 t-130 345h-143q-59 0 -59 33z" />
<glyph unicode="&#xa5;" d="M84 272q0 47 25 72q14 14 49 14h334l32 164h-321q-59 0 -60 33q0 47 25 72q14 14 49 14h293l-266 647q-2 6 9 16.5t30.5 19.5t40.5 9q55 0 75 -57l222 -588l507 649q1 1 4 1q5 0 19 -3q20 -4 40.5 -22.5t20.5 -48.5q0 -37 -59 -109q-426 -514 -428 -514h279q59 0 59 -33 q0 -47 -25 -71q-14 -14 -49 -15h-336l-35 -164h326q59 0 60 -32q0 -47 -25 -72q-14 -14 -49 -14h-336l-39 -185q-14 -63 -76 -63h-6q-48 0 -48 41q0 10 3 22l39 185h-324q-59 -1 -59 32z" />
<glyph unicode="&#xa7;" horiz-adv-x="1064" d="M-51 -72q0 31 20.5 54.5t41 32t22.5 3.5q98 -227 395 -227q139 0 213 53.5t74 145.5q0 47 -41 86t-78 56.5t-135 53.5l-31 13q-82 29 -126 48t-101.5 56t-84 86t-26.5 115q0 119 78 194.5t197 102.5q-131 86 -131 225q0 143 115.5 233.5t307.5 90.5q238 0 363 -125 q57 -57 57 -111q0 -31 -20.5 -52.5t-42 -29.5t-23.5 -2q-96 201 -344 201q-129 0 -203.5 -52.5t-74.5 -134.5q0 -29 8 -52t33.5 -45.5t41 -35t62.5 -34t64.5 -27.5t78.5 -31l99.5 -39t84 -41.5t78 -55.5t45 -68t21.5 -91q0 -125 -76.5 -201.5t-197.5 -99.5q137 -78 137 -217 q0 -152 -116 -243t-316 -91q-272 0 -406 133q-63 64 -63 123zM225 532q0 -37 17.5 -66.5t37 -49t66.5 -42t75 -32.5l95 -35q14 -4 40 -14t32 -12q109 4 187.5 65.5t78.5 151.5q0 39 -19.5 70.5t-56.5 54t-80 40t-100 37.5q-16 6 -25 9q-31 10 -92 34q-111 -14 -183.5 -69.5 t-72.5 -141.5z" />
<glyph unicode="&#xa8;" horiz-adv-x="1024" d="M393 1200q0 49 28 84t77 35q100 0 100 -78q0 -49 -27.5 -84t-76.5 -35q-101 0 -101 78zM737 1200q0 49 28 84t77 35q100 0 100 -78q0 -49 -27.5 -84t-76.5 -35q-101 0 -101 78z" />
<glyph unicode="&#xa9;" horiz-adv-x="1550" d="M139 659q0 297 192.5 494t481.5 197q295 0 483.5 -192.5t188.5 -491.5q0 -297 -192.5 -494t-481.5 -197q-295 0 -483.5 192.5t-188.5 491.5zM250 664q0 -254 160.5 -422t404.5 -168q248 0 403.5 163.5t155.5 424.5q0 254 -160.5 421.5t-404.5 167.5q-248 0 -403.5 -163.5 t-155.5 -423.5zM467 659q0 156 104.5 261.5t255.5 105.5q147 0 234 -86q39 -39 39 -78q0 -20 -16.5 -37.5t-34 -23.5t-19.5 -2q-61 113 -205 112q-94 0 -163.5 -72.5t-69.5 -176.5q0 -109 69.5 -180.5t172.5 -71.5q150 0 204 122q2 4 19.5 -1t35 -22t17.5 -40q0 -39 -49 -90 q-80 -84 -232 -84q-158 0 -260 102t-102 262z" />
<glyph unicode="&#xaa;" horiz-adv-x="997" d="M135 860q0 188 128 340t315 152q94 0 165.5 -43t106.5 -117l4 22q14 68 37.5 95.5t64.5 27.5q12 0 23.5 -3t18 -7t6.5 -6l-130 -602q-6 -27 -5 -48q0 -23 8 -36q14 -25 65 -27q4 0 1 -18.5t-23.5 -36.5t-59.5 -18q-68 0 -96 43q-21 32 -21 81q0 18 2 37 q-106 -168 -299 -168q-133 0 -222 88t-89 244zM260 866q0 -106 60.5 -167.5t150.5 -61.5q115 0 206 84t116 203l26 129q-57 193 -244 192q-139 0 -227 -117t-88 -262zM285 51q0 61 28 94q23 25 70 25q88 0 88 -63.5t-31 -94.5q-25 -25 -67 -24q-88 0 -88 63z" />
<glyph unicode="&#xab;" horiz-adv-x="1038" d="M104 524q0 6 24 32t69 67t96 79q156 119 225 119q47 0 47 -49q0 -63 -186 -178q-139 -88 -154 -96q63 -49 131 -111q78 -72 107 -105.5t31 -62.5q2 -18 -14.5 -32.5t-39.5 -14.5q-80 0 -196 143q-53 66 -96.5 131.5t-43.5 77.5zM510 502q0 10 67.5 72.5t147.5 121.5 q168 129 240 129q47 0 47 -49q0 -31 -62.5 -88t-152.5 -113q-6 -4 -68.5 -42.5t-97.5 -57.5q61 -49 112 -96q66 -61 90.5 -92t24.5 -60q0 -18 -16.5 -32.5t-38.5 -14.5q-74 0 -174 127q-45 57 -82 119t-37 76z" />
<glyph unicode="&#xac;" horiz-adv-x="1445" d="M125 555q0 342 222 568.5t536 226.5q254 0 405 -152q80 -80 80 -145q0 -35 -23.5 -56.5t-45.5 -21.5h-25q-41 111 -150.5 182.5t-271.5 71.5q-227 0 -403.5 -191.5t-176.5 -482.5q0 -195 128 -326t352 -131q199 0 320.5 116t144.5 314h-461q-63 0 -64 33q0 51 27 78 q14 14 51 14h510q80 0 80 -65q0 -98 -42 -225t-138 -224q-162 -162 -432 -162q-285 0 -454 164t-169 414z" />
<glyph unicode="&#xad;" horiz-adv-x="749" d="M92 469q0 47 25 72q16 16 51 16h434q61 0 62 -35q0 -47 -25 -71q-16 -16 -51 -17h-434q-62 0 -62 35z" />
<glyph unicode="&#xae;" horiz-adv-x="1550" d="M139 659q0 297 192.5 494t481.5 197q295 0 483.5 -192.5t188.5 -491.5q0 -297 -192.5 -494t-481.5 -197q-295 0 -483.5 192.5t-188.5 491.5zM250 664q0 -254 160.5 -422t404.5 -168q248 0 403.5 163.5t155.5 424.5q0 254 -160.5 421.5t-404.5 167.5q-248 0 -403.5 -163.5 t-155.5 -423.5zM555 375v575q0 33 18.5 51.5t47.5 18.5h217q274 0 274 -219q0 -100 -62.5 -152.5t-150.5 -58.5l199 -230q4 -4 -4.5 -16t-25.5 -23.5t-38 -11.5q-49 0 -84 45l-178 226h-90v-213q0 -57 -53 -58h-17q-53 0 -53 66zM676 682h164q72 0 110.5 30.5t38.5 86.5 q0 117 -155 116h-158v-233z" />
<glyph unicode="&#xaf;" horiz-adv-x="1024" d="M375 1200q0 45 24 74q14 16 54 16h450q63 0 64 -37q0 -45 -25 -73q-14 -16 -53 -17h-451q-63 0 -63 37z" />
<glyph unicode="&#xb0;" horiz-adv-x="794" d="M176 991q0 152 105.5 258.5t250.5 106.5q121 0 200 -77t79 -202q0 -152 -105.5 -258t-250.5 -106q-121 0 -200 76.5t-79 201.5zM291 999q0 -76 52 -128t132 -52q90 0 155.5 73t65.5 177q0 76 -52 128t-132 52q-90 0 -155.5 -73t-65.5 -177z" />
<glyph unicode="&#xb1;" horiz-adv-x="778" d="M-20 33q0 47 24 71q14 14 49 15h211l205 975q-61 -61 -150 -62q-82 0 -116 35q-25 25 -25 63q0 27 15.5 50.5t30 35t16.5 9.5q35 -51 116 -51q63 0 113.5 46t69.5 113h57q52 0 52 -46q0 -11 -3 -25l-242 -1143h183q59 0 59 -33q0 -47 -24 -72q-14 -14 -50 -14h-532 q-59 0 -59 33z" />
<glyph unicode="&#xb2;" horiz-adv-x="1064" d="M14 94q0 203 133 336q70 70 164.5 117t235.5 98q225 82 311 148.5t86 199.5q0 100 -80 165t-217 65q-238 0 -350 -240q-2 -6 -22.5 -1t-40 25.5t-19.5 55.5q0 70 78 147q139 139 362 140q199 0 315.5 -96.5t116.5 -260.5q0 -100 -32.5 -175t-106.5 -130t-149.5 -91 t-206.5 -83q-139 -49 -216 -88t-132 -94q-80 -80 -88 -205h686q78 0 78 -51q0 -14 -7.5 -32.5t-14.5 -31t-9 -12.5h-819q-4 0 -17.5 13.5t-26 37t-12.5 43.5z" />
<glyph unicode="&#xb3;" horiz-adv-x="1089" d="M-4 270q0 43 23.5 69t46 31t24.5 -1q25 -131 122 -202t257 -71q172 0 262 87t90 216q0 111 -81 176.5t-230 65.5h-94q-59 0 -60 33q0 47 25 71q14 14 49 15h107q381 0 381 260q0 94 -81 152.5t-202 58.5q-229 0 -359 -193q-2 -4 -19 3.5t-33.5 25.5t-16.5 39q0 49 55 104 q135 139 379 140q184 0 304 -84t120 -242q0 -127 -78 -222t-229 -118q104 -35 157.5 -109.5t53.5 -173.5q0 -76 -28 -148.5t-85 -136t-159.5 -102.5t-235.5 -39q-252 0 -381 129q-84 84 -84 166z" />
<glyph unicode="&#xb4;" horiz-adv-x="1024" d="M504 1128.5q-4 6.5 40 51.5t117.5 107.5t137.5 98.5q49 31 94 31q25 0 42 -16.5t17 -40.5q0 -49 -84 -98q-70 -41 -157.5 -76t-145 -49.5t-61.5 -8z" />
<glyph unicode="&#xb5;" horiz-adv-x="1044" d="M27 219q0 186 167.5 270t579.5 93h21l2 8q8 40 8 75q0 84 -48 138q-69 76 -222 76q-215 0 -318 -152q-2 -2 -15.5 5t-27.5 25.5t-14 41.5q0 63 103.5 131.5t285.5 68.5q217 0 317 -112q71 -80 72 -202q0 -50 -12 -105l-80 -373q-8 -35 -8 -59q0 -28 10 -43q18 -28 86 -29 q2 0 2 -8q0 -6 -1 -16q-3 -24 -25.5 -46t-67.5 -22q-133 0 -134 139q0 6 1 12q-139 -160 -342 -160q-156 0 -248 65.5t-92 178.5zM162 229q0 -61 62.5 -101t160.5 -40q133 0 234.5 80t130.5 201l24 108l-59 -2q-219 -6 -341 -35.5t-167 -79t-45 -131.5z" />
<glyph unicode="&#x3bc;" horiz-adv-x="1044" d="M27 219q0 186 167.5 270t579.5 93h21l2 8q8 40 8 75q0 84 -48 138q-69 76 -222 76q-215 0 -318 -152q-2 -2 -15.5 5t-27.5 25.5t-14 41.5q0 63 103.5 131.5t285.5 68.5q217 0 317 -112q71 -80 72 -202q0 -50 -12 -105l-80 -373q-8 -35 -8 -59q0 -28 10 -43q18 -28 86 -29 q2 0 2 -8q0 -6 -1 -16q-3 -24 -25.5 -46t-67.5 -22q-133 0 -134 139q0 6 1 12q-139 -160 -342 -160q-156 0 -248 65.5t-92 178.5zM162 229q0 -61 62.5 -101t160.5 -40q133 0 234.5 80t130.5 201l24 108l-59 -2q-219 -6 -341 -35.5t-167 -79t-45 -131.5z" />
<glyph unicode="&#xb6;" horiz-adv-x="1204" d="M135 901q0 190 123 307t391 117h244q45 0 65 -25q14 -16 14 -40q0 -12 -3 -27l-250 -1178q-14 -63 -70 -63h-18q-52 0 -53 46q0 11 4 25l112 531h-112q-217 0 -332 77.5t-115 229.5zM840 63l256 1207q14 63 69 63h19q52 0 52 -46q0 -11 -3 -25l-256 -1207 q-14 -63 -70 -63h-18q-52 0 -53 46q1 11 4 25z" />
<glyph unicode="&#xb7;" horiz-adv-x="452" d="M127 467q0 74 33 106q27 27 76 27q98 0 98 -70q0 -74 -33 -106q-27 -27 -76 -27q-98 0 -98 70z" />
<glyph unicode="&#xb8;" horiz-adv-x="1024" d="M123 -438l219 342q1 2 7 2q8 0 25 -3q30 -5 58.5 -24.5t28.5 -48.5q0 -45 -45 -92l-232 -217q-5 -5 -11 -5q-12 0 -30 13q-22 16 -22 27q0 3 2 6z" />
<glyph unicode="&#xb9;" horiz-adv-x="710" d="M182 1130q0 27 15.5 50.5t30 35t16.5 9.5q35 -51 116 -51q63 0 113.5 46t69.5 113h57q52 0 52 -46q0 -11 -3 -25l-256 -1207q-14 -63 -69 -63h-19q-52 0 -52 46q0 11 3 25l217 1031q-61 -61 -149 -62q-82 0 -117 35q-25 24 -25 63z" />
<glyph unicode="&#xba;" horiz-adv-x="907" d="M145 891q0 186 126 322.5t315 136.5q158 0 261 -100.5t103 -262.5q0 -186 -126 -323.5t-316 -137.5q-156 0 -259.5 100.5t-103.5 264.5zM270 51q0 61 29 94q23 25 70 25q88 0 88 -63.5t-31 -94.5q-25 -25 -68 -24q-88 0 -88 63zM270 893q0 -111 71 -184.5t173 -73.5 q131 0 221 103.5t90 244.5q0 111 -70.5 184.5t-174.5 73.5q-131 0 -220.5 -103.5t-89.5 -244.5z" />
<glyph unicode="&#xbb;" horiz-adv-x="1038" d="M31 219q0 31 62.5 88.5t152.5 112.5q6 4 68.5 43t97.5 57q-61 49 -113 96q-66 61 -90.5 92t-24.5 60q0 18 16.5 32.5t39.5 14.5q74 0 174 -127q45 -57 81.5 -118.5t36.5 -75.5q0 -10 -67.5 -73t-147.5 -122q-168 -129 -239 -129q-47 0 -47 49zM477 223q0 63 187 178 l153 97q-63 49 -131 110q-78 72 -106.5 106t-30.5 62q-2 18 14.5 32.5t38.5 14.5q80 0 197 -143q53 -66 96 -131.5t43 -77.5q0 -6 -23.5 -31.5t-68.5 -66.5t-96 -80q-156 -119 -226 -119q-47 0 -47 49z" />
<glyph unicode="&#xbc;" horiz-adv-x="3160" d="M182 1130q0 27 15.5 50.5t30 35t16.5 9.5q35 -51 116 -51q63 0 113.5 46t69.5 113h57q52 0 52 -46q0 -11 -3 -25l-256 -1207q-14 -63 -69 -63h-19q-52 0 -52 46q0 11 3 25l217 1031q-61 -61 -149 -62q-82 0 -117 35q-25 24 -25 63zM666 37q0 51 71 117l1323 1200q2 2 6 2 q5 0 12 -3q13 -5 26.5 -19.5t13.5 -33.5q0 -51 -72 -116l-1323 -1200q-2 -2 -6 -2q-5 0 -11 3q-13 5 -26.5 19.5t-13.5 32.5zM2044 475q0 59 70 129l669 649q82 80 150 80q99 0 99 -72q0 -13 -3 -28l-156 -729h170q63 0 64 -35q0 -47 -27 -78q-12 -14 -53 -14h-180l-68 -322 q-8 -37 -22.5 -50t-46.5 -13h-15q-52 0 -52 48q0 11 3 23l66 314h-621q-4 0 -15.5 14.5t-21.5 39t-10 44.5zM2181 502h561l148 696z" />
<glyph unicode="&#xbd;" horiz-adv-x="3055" d="M182 1130q0 27 15.5 50.5t30 35t16.5 9.5q35 -51 116 -51q63 0 113.5 46t69.5 113h57q52 0 52 -46q0 -11 -3 -25l-256 -1207q-14 -63 -69 -63h-19q-52 0 -52 46q0 11 3 25l217 1031q-61 -61 -149 -62q-82 0 -117 35q-25 24 -25 63zM666 37q0 51 71 117l1323 1200q2 2 6 2 q5 0 12 -3q13 -5 26.5 -19.5t13.5 -33.5q0 -51 -72 -116l-1323 -1200q-2 -2 -6 -2q-5 0 -11 3q-13 5 -26.5 19.5t-13.5 32.5zM2005 94q0 203 133 336q70 70 164 117t235 98q225 82 311.5 148.5t86.5 199.5q0 100 -80 165t-217 65q-238 0 -350 -240q-2 -6 -22.5 -1t-40 25.5 t-19.5 55.5q0 70 78 147q139 139 362 140q199 0 315.5 -96.5t116.5 -260.5q0 -100 -32.5 -175t-106.5 -130t-149.5 -91t-206.5 -83q-139 -49 -216 -88t-133 -94q-80 -80 -88 -205h686q78 0 78 -51q0 -14 -7 -32.5t-14 -31t-10 -12.5h-819q-4 0 -17 13.5t-25.5 37t-12.5 43.5 z" />
<glyph unicode="&#xbe;" horiz-adv-x="3538" d="M-4 270q0 43 23.5 69t46 31t24.5 -1q25 -131 122 -202t257 -71q172 0 262 87t90 216q0 111 -81 176.5t-230 65.5h-94q-59 0 -60 33q0 47 25 71q14 14 49 15h107q381 0 381 260q0 94 -81 152.5t-202 58.5q-229 0 -359 -193q-2 -4 -19 3.5t-33.5 25.5t-16.5 39q0 49 55 104 q135 139 379 140q184 0 304 -84t120 -242q0 -127 -78 -222t-229 -118q104 -35 157.5 -109.5t53.5 -173.5q0 -76 -28 -148.5t-85 -136t-159.5 -102.5t-235.5 -39q-252 0 -381 129q-84 84 -84 166zM1044 37q0 51 72 117l1323 1200q2 2 6 2q5 0 12 -3q13 -5 26.5 -19.5 t13.5 -33.5q0 -51 -72 -116l-1323 -1200q-2 -2 -6 -2q-5 0 -12 3q-13 5 -26.5 19.5t-13.5 32.5zM2423 475q0 59 69 129l670 649q82 80 150 80q99 0 99 -72q0 -13 -3 -28l-156 -729h170q63 0 64 -35q0 -47 -27 -78q-12 -14 -53 -14h-180l-68 -322q-8 -37 -22.5 -50t-47.5 -13 h-14q-52 0 -52 48q0 11 3 23l65 314h-620q-4 0 -15.5 14.5t-21.5 39t-10 44.5zM2560 502h561l148 696z" />
<glyph unicode="&#xbf;" horiz-adv-x="948" d="M18 332q0 258 324 364q119 39 167 70t48 70q0 51 -51 67q-4 2 1 16.5t22.5 29t45.5 14.5q47 0 80 -34t33 -89q0 -84 -61.5 -137.5t-196.5 -100.5q-143 -49 -208.5 -106.5t-65.5 -163.5q0 -100 73.5 -169t200.5 -69q113 0 192.5 68.5t122.5 181.5q2 6 24 0t43.5 -25.5 t21.5 -48.5q0 -82 -86 -168q-131 -131 -326 -131q-182 0 -293 102.5t-111 258.5zM571 1200q0 74 33 107q27 27 76 26q98 0 98 -69q0 -74 -33 -107q-27 -27 -75 -27q-99 0 -99 70z" />
<glyph unicode="&#xc0;" horiz-adv-x="1247" d="M-25 68q0 33 39 100l668 1124q29 47 88 47q84 0 96 -61l250 -1243q2 -6 -8 -15.5t-29.5 -17.5t-40.5 -8q-59 0 -73 76l-68 362h-573l-252 -438q-4 2 -26 -1q-3 0 -6 -1q-19 0 -40 17q-25 20 -25 59zM395 555h477l-116 625zM510 1731q0 25 20.5 42t44.5 17q43 0 93 -43 q55 -45 109 -109.5t84 -109.5q25 -37 25 -48q0 -2 -1 -3q-2 -2 -7 -2q-13 0 -51 13q-51 17 -124.5 56t-131.5 86q-61 52 -61 101z" />
<glyph unicode="&#xc1;" horiz-adv-x="1247" d="M-25 68q0 33 39 100l668 1124q29 47 88 47q84 0 96 -61l250 -1243q2 -6 -8 -15.5t-29.5 -17.5t-40.5 -8q-59 0 -73 76l-68 362h-573l-252 -438q-4 2 -26 -1q-3 0 -6 -1q-19 0 -40 17q-25 20 -25 59zM395 555h477l-116 625zM696 1478q0 9 40 50q44 45 118 107.5t137 99.5 q49 31 94 30q25 0 42.5 -16t17.5 -41q0 -49 -84 -98q-70 -41 -158 -76t-145 -49q-40 -10 -54 -10q-8 0 -8 3z" />
<glyph unicode="&#xc2;" horiz-adv-x="1247" d="M-25 68q0 33 39 100l668 1124q29 47 88 47q84 0 96 -61l250 -1243q2 -6 -8 -15.5t-29.5 -17.5t-40.5 -8q-59 0 -73 76l-68 362h-573l-252 -438q-4 2 -26 -1q-3 0 -6 -1q-19 0 -40 17q-25 20 -25 59zM395 555h477l-116 625zM522 1507q0 61 137 176q41 35 87.5 69t73 51.5 t30.5 17.5t23.5 -18.5t49 -50.5t54.5 -62q80 -104 80 -158q0 -59 -49 -59q-25 0 -49.5 27.5t-65.5 96.5l-59 105l-105 -109q-117 -121 -168 -120q-39 -1 -39 34z" />
<glyph unicode="&#xc3;" horiz-adv-x="1247" d="M-25 68q0 33 39 100l668 1124q29 47 88 47q84 0 96 -61l250 -1243q2 -6 -8 -15.5t-29.5 -17.5t-40.5 -8q-59 0 -73 76l-68 362h-573l-252 -438q-4 2 -26 -1q-3 0 -6 -1q-19 0 -40 17q-25 20 -25 59zM395 555h477l-116 625zM502 1526q0 70 51 133t113 63q51 0 128.5 -44 t155.5 -119q63 150 110.5 149.5t47.5 -41.5q0 -70 -51 -133.5t-113 -63.5q-51 0 -129 44.5t-156 119.5q-63 -150 -110 -149.5t-47 41.5z" />
<glyph unicode="&#xc4;" horiz-adv-x="1247" d="M-25 68q0 33 39 100l668 1124q29 47 88 47q84 0 96 -61l250 -1243q2 -6 -8 -15.5t-29.5 -17.5t-40.5 -8q-59 0 -73 76l-68 362h-573l-252 -438q-4 2 -26 -1q-3 0 -6 -1q-19 0 -40 17q-25 20 -25 59zM395 555h477l-116 625zM524 1548q0 49 28 84t77 35q100 0 100 -78 q0 -49 -27.5 -84t-76.5 -35q-101 0 -101 78zM868 1548q0 49 28 84t77 35q100 0 100 -78q0 -49 -27.5 -84t-76.5 -35q-101 0 -101 78z" />
<glyph unicode="&#xc5;" horiz-adv-x="1247" d="M-25 68q0 33 39 100l633 1065q6 10 19 27q-104 55 -105 178q0 111 76 192.5t190 81.5q98 0 161 -58.5t63 -148.5q0 -86 -50.5 -159.5t-130.5 -100.5q6 -12 9 -31l237 -1179q2 -6 -8 -15.5t-29.5 -17.5t-40.5 -8q-59 0 -73 76l-68 362h-573l-252 -438q-4 2 -26 -1 q-3 0 -6 -1q-19 0 -40 17q-25 20 -25 59zM395 555h477l-116 625zM666 1446q0 -51 34.5 -87t87.5 -36q70 0 114 53.5t44 120.5q0 51 -34.5 87t-88.5 36q-70 0 -113.5 -53t-43.5 -121z" />
<glyph unicode="&#xc6;" horiz-adv-x="1732" d="M-25 68q0 33 39 100l645 1085q43 72 117 72h961q63 0 63 -35q0 -47 -26 -78q-12 -14 -54 -14h-837l92 -457h504q61 0 61 -32q0 -51 -24 -76q-14 -14 -52 -15h-465l99 -491h415q63 0 64 -35q0 -47 -27 -78q-12 -14 -53 -14h-424q-53 0 -78.5 19.5t-33.5 70.5l-64 342h-573 l-252 -438l-11 -2q-10 0 -23 3t-27.5 9t-25 22.5t-10.5 41.5zM395 555h477l-116 625z" />
<glyph unicode="&#xc7;" horiz-adv-x="1331" d="M125 547q0 330 213 566.5t524 236.5q250 0 395 -146q86 -86 86 -164q0 -33 -20 -54t-41.5 -26.5t-30.5 1.5q-98 268 -395 268q-248 0 -416 -194.5t-168 -467.5q0 -215 124 -342t325 -127q283 0 424 215q2 4 19.5 -3t33.5 -25.5t16 -44.5q0 -49 -59 -109 q-66 -66 -182.5 -111t-249.5 -45q-272 0 -435 155t-163 417zM420 -438l219 342q1 2 7 2q8 0 25 -3q30 -5 58.5 -24.5t28.5 -48.5q0 -45 -45 -92l-232 -217q-5 -5 -11 -5q-12 0 -30 13q-22 16 -22 27q0 3 2 6z" />
<glyph unicode="&#xc8;" horiz-adv-x="1179" d="M74 92l243 1149q16 84 97 84h784q63 0 64 -35q0 -47 -27 -78q-12 -14 -53 -14h-733l-99 -457h580q61 0 61 -32q0 -51 -24 -76q-14 -14 -52 -15h-591l-105 -491h735q63 0 64 -35q0 -47 -27 -78q-12 -14 -53 -14h-788q-45 0 -66 25q-14 16 -14 41q1 12 4 26zM588 1731 q0 25 20.5 42t44.5 17q43 0 92 -43q55 -45 109.5 -109.5t84.5 -109.5q25 -37 25 -48q0 -2 -1 -3q-2 -2 -7 -2q-13 0 -51 13q-51 17 -124.5 56t-131.5 86q-61 52 -61 101z" />
<glyph unicode="&#xc9;" horiz-adv-x="1179" d="M74 92l243 1149q16 84 97 84h784q63 0 64 -35q0 -47 -27 -78q-12 -14 -53 -14h-733l-99 -457h580q61 0 61 -32q0 -51 -24 -76q-14 -14 -52 -15h-591l-105 -491h735q63 0 64 -35q0 -47 -27 -78q-12 -14 -53 -14h-788q-45 0 -66 25q-14 16 -14 41q1 12 4 26zM712 1478 q0 9 41 50q44 45 117.5 107.5t137.5 99.5q49 31 94 30q25 0 42 -16t17 -41q0 -49 -84 -98q-70 -41 -158 -76t-145 -49q-40 -10 -54 -10q-8 0 -8 3z" />
<glyph unicode="&#xca;" horiz-adv-x="1179" d="M74 92l243 1149q16 84 97 84h784q63 0 64 -35q0 -47 -27 -78q-12 -14 -53 -14h-733l-99 -457h580q61 0 61 -32q0 -51 -24 -76q-14 -14 -52 -15h-591l-105 -491h735q63 0 64 -35q0 -47 -27 -78q-12 -14 -53 -14h-788q-45 0 -66 25q-14 16 -14 41q1 12 4 26zM580 1507 q0 61 137 176q41 35 87 69t72.5 51.5t30.5 17.5t23.5 -18.5t49.5 -50.5t54 -62q80 -104 80 -158q0 -59 -49 -59q-25 0 -49.5 27.5t-65.5 96.5l-59 105l-105 -109q-118 -121 -168 -120q-38 -1 -38 34z" />
<glyph unicode="&#xcb;" horiz-adv-x="1179" d="M74 92l243 1149q16 84 97 84h784q63 0 64 -35q0 -47 -27 -78q-12 -14 -53 -14h-733l-99 -457h580q61 0 61 -32q0 -51 -24 -76q-14 -14 -52 -15h-591l-105 -491h735q63 0 64 -35q0 -47 -27 -78q-12 -14 -53 -14h-788q-45 0 -66 25q-14 16 -14 41q1 12 4 26zM561 1548 q0 49 27.5 84t77.5 35q100 0 100 -78q0 -49 -27.5 -84t-76.5 -35q-101 0 -101 78zM905 1548q0 49 28 84t77 35q100 0 100 -78q0 -49 -27.5 -84t-76.5 -35q-101 0 -101 78z" />
<glyph unicode="&#xcc;" horiz-adv-x="495" d="M90 63l256 1207q14 63 70 63h18q52 0 53 -46q0 -11 -4 -25l-256 -1207q-14 -63 -69 -63h-19q-52 0 -52 46q0 11 3 25zM162 1731q0 25 20.5 42t44.5 17q43 0 92 -43q55 -45 109.5 -109.5t84.5 -109.5q25 -37 25 -48q0 -2 -1 -3q-2 -2 -7 -2q-13 0 -51 13q-51 17 -124.5 56 t-131.5 86q-61 52 -61 101z" />
<glyph unicode="&#xcd;" horiz-adv-x="495" d="M90 63l256 1207q14 63 70 63h18q52 0 53 -46q0 -11 -4 -25l-256 -1207q-14 -63 -69 -63h-19q-52 0 -52 46q0 11 3 25zM368 1478q0 9 41 50q44 45 117.5 107.5t137.5 99.5q49 31 94 30q25 0 42 -16t17 -41q0 -49 -84 -98q-70 -41 -158 -76t-145 -49q-40 -10 -54 -10 q-8 0 -8 3z" />
<glyph unicode="&#xce;" horiz-adv-x="495" d="M90 63l256 1207q14 63 70 63h18q52 0 53 -46q0 -11 -4 -25l-256 -1207q-14 -63 -69 -63h-19q-52 0 -52 46q0 11 3 25zM195 1507q0 61 137 176q41 35 87 69t72.5 51.5t30.5 17.5t23.5 -18.5t49.5 -50.5t54 -62q80 -104 80 -158q0 -59 -49 -59q-25 0 -49.5 27.5t-65.5 96.5 l-59 105l-105 -109q-117 -121 -168 -120q-38 -1 -38 34z" />
<glyph unicode="&#xcf;" horiz-adv-x="495" d="M90 63l256 1207q14 63 70 63h18q52 0 53 -46q0 -11 -4 -25l-256 -1207q-14 -63 -69 -63h-19q-52 0 -52 46q0 11 3 25zM197 1548q0 49 27.5 84t76.5 35q100 0 100 -78q0 -49 -27.5 -84t-76.5 -35q-100 0 -100 78zM541 1548q0 49 27.5 84t76.5 35q100 0 100 -78 q0 -49 -27.5 -84t-76.5 -35q-100 0 -100 78z" />
<glyph unicode="&#xd0;" horiz-adv-x="1427" d="M68 637q0 47 24 72q14 14 49 14h142l110 518q12 84 96 84h226q309 0 482 -144.5t173 -406.5q0 -338 -214 -556t-611 -218h-320q-45 0 -65 25q-14 16 -14 41q0 12 4 26l108 512h-131q-59 0 -59 33zM295 123h270q324 0 491 179t167 452q0 211 -136.5 329.5t-381.5 118.5 h-181l-102 -479h432q59 0 59 -33q0 -47 -24 -72q-14 -14 -49 -14h-443z" />
<glyph unicode="&#xd1;" horiz-adv-x="1382" d="M68 63l249 1176q20 94 99 94h35q33 0 50 -16.5t38 -56.5l495 -1053l226 1063q14 63 67 63h14q50 0 51 -45q0 -12 -3 -26l-252 -1186q-18 -84 -90 -84h-15q-49 0 -86 74l-516 1093l-233 -1104q-14 -63 -68 -63h-14q-50 0 -51 45q1 11 4 26zM637 1526q0 70 51 133t113 63 q51 0 129 -44t155 -119q63 150 110.5 149.5t47.5 -41.5q0 -70 -51 -133.5t-113 -63.5q-51 0 -129 44.5t-155 119.5q-63 -150 -110.5 -149.5t-47.5 41.5z" />
<glyph unicode="&#xd2;" horiz-adv-x="1499" d="M125 551q0 340 223 569.5t510 229.5q268 0 429 -162t161 -412q0 -340 -223.5 -569.5t-509.5 -229.5q-268 0 -429 162t-161 412zM272 561q0 -199 122 -331t335 -132q221 0 396 191.5t175 476.5q0 199 -121.5 331t-334.5 132q-221 0 -396.5 -191.5t-175.5 -476.5zM657 1731 q0 25 20.5 42t45.5 17q43 0 92 -43q55 -45 109.5 -109.5t84.5 -109.5q25 -37 24 -48q0 -2 -1 -3q-2 -2 -6 -2q-13 0 -51 13q-51 17 -125 56t-131 86q-62 52 -62 101z" />
<glyph unicode="&#xd3;" horiz-adv-x="1499" d="M125 551q0 340 223 569.5t510 229.5q268 0 429 -162t161 -412q0 -340 -223.5 -569.5t-509.5 -229.5q-268 0 -429 162t-161 412zM272 561q0 -199 122 -331t335 -132q221 0 396 191.5t175 476.5q0 199 -121.5 331t-334.5 132q-221 0 -396.5 -191.5t-175.5 -476.5zM741 1478 q0 9 40 50q44 45 118 107.5t137 99.5q48 31 94 30q25 0 42.5 -16t17.5 -41q0 -49 -84 -98q-70 -41 -158 -76t-145 -49q-40 -10 -54 -10q-8 0 -8 3z" />
<glyph unicode="&#xd4;" horiz-adv-x="1499" d="M125 551q0 340 223 569.5t510 229.5q268 0 429 -162t161 -412q0 -340 -223.5 -569.5t-509.5 -229.5q-268 0 -429 162t-161 412zM272 561q0 -199 122 -331t335 -132q221 0 396 191.5t175 476.5q0 199 -121.5 331t-334.5 132q-221 0 -396.5 -191.5t-175.5 -476.5zM649 1507 q0 61 137 176q41 35 87.5 69t73 51.5t30.5 17.5t23.5 -18.5t49 -50.5t54.5 -62q80 -104 80 -158q0 -59 -49 -59q-25 0 -49.5 27.5t-65.5 96.5l-59 105l-105 -109q-117 -121 -168 -120q-39 -1 -39 34z" />
<glyph unicode="&#xd5;" horiz-adv-x="1499" d="M125 551q0 340 223 569.5t510 229.5q268 0 429 -162t161 -412q0 -340 -223.5 -569.5t-509.5 -229.5q-268 0 -429 162t-161 412zM272 561q0 -199 122 -331t335 -132q221 0 396 191.5t175 476.5q0 199 -121.5 331t-334.5 132q-221 0 -396.5 -191.5t-175.5 -476.5zM608 1526 q0 70 51.5 133t112.5 63q51 0 129 -44t156 -119q63 150 110 149.5t47 -41.5q0 -70 -51 -133.5t-112 -63.5q-51 0 -129 44.5t-156 119.5q-63 -150 -110.5 -149.5t-47.5 41.5z" />
<glyph unicode="&#xd6;" horiz-adv-x="1499" d="M125 551q0 340 223 569.5t510 229.5q268 0 429 -162t161 -412q0 -340 -223.5 -569.5t-509.5 -229.5q-268 0 -429 162t-161 412zM272 561q0 -199 122 -331t335 -132q221 0 396 191.5t175 476.5q0 199 -121.5 331t-334.5 132q-221 0 -396.5 -191.5t-175.5 -476.5zM651 1548 q0 49 28 84t77 35q100 0 100 -78q0 -49 -27.5 -84t-76.5 -35q-101 0 -101 78zM995 1548q0 49 28 84t77 35q100 0 100 -78q0 -49 -27.5 -84t-76.5 -35q-101 0 -101 78z" />
<glyph unicode="&#xd7;" horiz-adv-x="1103" d="M141 233q0 31 29 54l315 268l-196 264q-20 27 -21 45q0 20 19.5 40t44.5 20q31 0 53 -31l195 -260l307 260q25 23 49 22q18 0 39.5 -23.5t21.5 -39.5q0 -31 -28 -53l-314 -267l199 -266q20 -27 20 -45q0 -20 -19 -39.5t-44 -19.5q-31 0 -53 31l-197 262l-309 -262 q-25 -23 -49 -23q-18 0 -40 23.5t-22 39.5z" />
<glyph unicode="&#xd8;" horiz-adv-x="1499" d="M-6 4q0 53 59 107l27 22l50 44l56 48l23 21q-84 141 -84 305q0 340 223 569.5t510 229.5q252 0 418 -160l211 188q1 1 3 2q5 0 15 -7q14 -9 26.5 -27.5t12.5 -36.5q0 -53 -59 -107l-127 -112q90 -137 90 -314q0 -340 -223.5 -569.5t-509.5 -229.5q-256 0 -428 168 l-58 -51l-118 -106l-60 -54q-1 -1 -3 -1q-5 0 -15 7q-14 9 -26.5 27.5t-12.5 36.5zM272 561q0 -121 47 -225l857 766q-117 127 -332 127q-221 0 -396.5 -191.5t-175.5 -476.5zM387 233q123 -135 342 -135q221 0 396 191.5t175 476.5q0 133 -53 235z" />
<glyph unicode="&#xd9;" horiz-adv-x="1308" d="M160 584l145 686q14 63 70 63h18q52 0 53 -46q0 -11 -4 -25l-145 -689q-18 -86 -18 -155q0 -123 55 -199q86 -119 297 -119q324 0 409 406l162 764q14 63 70 63h16q52 0 53 -46q0 -11 -4 -25l-166 -785q-106 -502 -548 -502q-274 0 -401 157q-84 104 -84 270q1 83 22 182 zM668 1710q0 25 20.5 42t44.5 17q41 0 92 -43q55 -45 109.5 -109.5t84.5 -109.5q25 -37 24 -48q0 -2 -1 -3q-2 -2 -6 -1q-13 0 -51 12q-51 17 -125 56.5t-131 86.5q-61 51 -61 100z" />
<glyph unicode="&#xda;" horiz-adv-x="1308" d="M160 584l145 686q14 63 70 63h18q52 0 53 -46q0 -11 -4 -25l-145 -689q-18 -86 -18 -155q0 -123 55 -199q86 -119 297 -119q324 0 409 406l162 764q14 63 70 63h16q52 0 53 -46q0 -11 -4 -25l-166 -785q-106 -502 -548 -502q-274 0 -401 157q-84 104 -84 270q1 83 22 182 zM751 1457q0 9 41 50q44 45 117.5 107.5t137.5 99.5q49 31 94 31q27 0 43 -16.5t16 -40.5q0 -49 -84 -99q-70 -41 -158 -75.5t-145 -49.5q-40 -10 -54 -10q-8 0 -8 3z" />
<glyph unicode="&#xdb;" horiz-adv-x="1308" d="M160 584l145 686q14 63 70 63h18q52 0 53 -46q0 -11 -4 -25l-145 -689q-18 -86 -18 -155q0 -123 55 -199q86 -119 297 -119q324 0 409 406l162 764q14 63 70 63h16q52 0 53 -46q0 -11 -4 -25l-166 -785q-106 -502 -548 -502q-274 0 -401 157q-84 104 -84 270q1 83 22 182 zM653 1487q0 61 138 176q41 35 87 68.5t72.5 51t30.5 17.5t23.5 -18.5t49 -50t54.5 -62.5q80 -104 80 -158q0 -59 -49 -59q-25 0 -49.5 27.5t-65.5 97.5l-59 104l-105 -108q-117 -121 -168 -121q-39 0 -39 35z" />
<glyph unicode="&#xdc;" horiz-adv-x="1308" d="M160 584l145 686q14 63 70 63h18q52 0 53 -46q0 -11 -4 -25l-145 -689q-18 -86 -18 -155q0 -123 55 -199q86 -119 297 -119q324 0 409 406l162 764q14 63 70 63h16q52 0 53 -46q0 -11 -4 -25l-166 -785q-106 -502 -548 -502q-274 0 -401 157q-84 104 -84 270q1 83 22 182 zM659 1528q0 49 28 84t77 35q100 0 100 -78q0 -49 -27.5 -84t-76.5 -35q-101 0 -101 78zM1004 1528q0 49 27.5 84t76.5 35q100 0 100 -78q0 -49 -27.5 -84t-76.5 -35q-100 0 -100 78z" />
<glyph unicode="&#xdd;" horiz-adv-x="1124" d="M186 1280q-2 6 7.5 18.5t31 23.5t43.5 11q47 0 68 -53l260 -602l559 659q2 2 22.5 -3t41 -23.5t20.5 -48.5q0 -39 -59 -107l-537 -612l-102 -488q-14 -63 -76 -63h-19q-48 0 -47 41q0 10 2 22l107 502zM632 1457q0 9 41 50q44 45 117.5 107.5t137.5 99.5q49 31 94 31 q27 0 43 -16.5t16 -40.5q0 -49 -84 -99q-70 -41 -157.5 -75.5t-145.5 -49.5q-40 -10 -54 -10q-8 0 -8 3z" />
<glyph unicode="&#xde;" horiz-adv-x="1142" d="M68 63l256 1207q14 63 69 63h19q52 0 52 -46q0 -11 -3 -25l-41 -189h244q211 0 325.5 -89t114.5 -253q0 -223 -137.5 -345t-391.5 -122h-327l-43 -209q-8 -35 -23.5 -49t-46.5 -14h-18q-52 0 -53 46q1 11 4 25zM274 387h328q168 0 263.5 86t95.5 240q0 236 -306 235h-262 z" />
<glyph unicode="&#xdf;" horiz-adv-x="1077" d="M47 55l193 903q47 227 163.5 340t282.5 113q176 0 279.5 -83t103.5 -222q0 -154 -101.5 -244t-305.5 -102q143 -33 234 -125t91 -221q0 -186 -122 -312.5t-294 -126.5q-160 0 -235 76q-39 39 -39 78q0 27 16.5 49.5t34 31.5t19.5 5q72 -123 213 -123q115 0 193.5 87 t78.5 222q0 182 -242 263q-92 31 -92 90q0 43 17.5 71.5t33.5 38.5q188 0 277.5 53.5t89.5 180.5q0 88 -69.5 140t-182.5 52q-244 0 -317 -344l-187 -891q-14 -63 -61 -63h-17q-27 0 -43 19t-12 44z" />
<glyph unicode="&#xe0;" d="M66 389q0 236 159.5 423t392.5 187q119 0 211.5 -56t135.5 -148l10 51q14 74 39.5 105.5t66.5 31.5q12 0 24.5 -4t20 -7t7.5 -5l-162 -760q-8 -35 -8 -59q0 -28 10 -43q18 -28 86 -29q4 0 1 -23.5t-25.5 -46t-67.5 -22.5q-82 0 -116 52q-23 35 -23 90q0 27 6 58 q-137 -209 -377 -209q-166 0 -278.5 109.5t-112.5 304.5zM201 391q0 -137 78.5 -218t193.5 -81q150 0 270.5 110.5t151.5 264.5l35 162q-74 254 -320 254q-182 0 -295.5 -152t-113.5 -340zM428 1382q0 25 20.5 42.5t45.5 17.5q43 0 92 -43q55 -45 109.5 -109.5t83.5 -109.5 q25 -37 25 -48q0 -2 -1 -4q-2 -2 -6 -1q-13 0 -52 13q-51 17 -124.5 56t-131.5 86q-61 51 -61 100z" />
<glyph unicode="&#xe1;" d="M66 389q0 236 159.5 423t392.5 187q119 0 211.5 -56t135.5 -148l10 51q14 74 39.5 105.5t66.5 31.5q12 0 24.5 -4t20 -7t7.5 -5l-162 -760q-8 -35 -8 -59q0 -28 10 -43q18 -28 86 -29q4 0 1 -23.5t-25.5 -46t-67.5 -22.5q-82 0 -116 52q-23 35 -23 90q0 27 6 58 q-137 -209 -377 -209q-166 0 -278.5 109.5t-112.5 304.5zM201 391q0 -137 78.5 -218t193.5 -81q150 0 270.5 110.5t151.5 264.5l35 162q-74 254 -320 254q-182 0 -295.5 -152t-113.5 -340zM573 1130q0 9 40 50q44 45 118 107.5t137 98.5q49 31 95 31q25 0 42 -16.5t17 -40.5 q0 -49 -84 -98q-70 -41 -158 -76t-145 -49q-40 -10 -54 -10q-8 0 -8 3z" />
<glyph unicode="&#xe2;" d="M66 389q0 236 159.5 423t392.5 187q119 0 211.5 -56t135.5 -148l10 51q14 74 39.5 105.5t66.5 31.5q12 0 24.5 -4t20 -7t7.5 -5l-162 -760q-8 -35 -8 -59q0 -28 10 -43q18 -28 86 -29q4 0 1 -23.5t-25.5 -46t-67.5 -22.5q-82 0 -116 52q-23 35 -23 90q0 27 6 58 q-137 -209 -377 -209q-166 0 -278.5 109.5t-112.5 304.5zM201 391q0 -137 78.5 -218t193.5 -81q150 0 270.5 110.5t151.5 264.5l35 162q-74 254 -320 254q-182 0 -295.5 -152t-113.5 -340zM440 1159q0 61 138 176q41 35 87 69t72.5 51.5t30.5 17.5t23.5 -18.5t49 -50.5 t54.5 -63q80 -104 80 -157q0 -59 -49 -60q-25 0 -49.5 28t-65.5 97l-59 105l-105 -109q-117 -121 -168 -121q-39 0 -39 35z" />
<glyph unicode="&#xe3;" d="M66 389q0 236 159.5 423t392.5 187q119 0 211.5 -56t135.5 -148l10 51q14 74 39.5 105.5t66.5 31.5q12 0 24.5 -4t20 -7t7.5 -5l-162 -760q-8 -35 -8 -59q0 -28 10 -43q18 -28 86 -29q4 0 1 -23.5t-25.5 -46t-67.5 -22.5q-82 0 -116 52q-23 35 -23 90q0 27 6 58 q-137 -209 -377 -209q-166 0 -278.5 109.5t-112.5 304.5zM201 391q0 -137 78.5 -218t193.5 -81q150 0 270.5 110.5t151.5 264.5l35 162q-74 254 -320 254q-182 0 -295.5 -152t-113.5 -340zM420 1178q0 70 51 133t113 63q51 0 129 -44t155 -120q63 150 110.5 150t47.5 -41 q0 -70 -51 -133.5t-113 -63.5q-51 0 -129 44t-155 120q-63 -150 -110.5 -149.5t-47.5 41.5z" />
<glyph unicode="&#xe4;" d="M66 389q0 236 159.5 423t392.5 187q119 0 211.5 -56t135.5 -148l10 51q14 74 39.5 105.5t66.5 31.5q12 0 24.5 -4t20 -7t7.5 -5l-162 -760q-8 -35 -8 -59q0 -28 10 -43q18 -28 86 -29q4 0 1 -23.5t-25.5 -46t-67.5 -22.5q-82 0 -116 52q-23 35 -23 90q0 27 6 58 q-137 -209 -377 -209q-166 0 -278.5 109.5t-112.5 304.5zM201 391q0 -137 78.5 -218t193.5 -81q150 0 270.5 110.5t151.5 264.5l35 162q-74 254 -320 254q-182 0 -295.5 -152t-113.5 -340zM442 1200q0 49 28 84t77 35q100 0 100 -78q0 -49 -27.5 -84t-76.5 -35 q-101 0 -101 78zM786 1200q0 49 28 84t77 35q100 0 100 -78q0 -49 -27.5 -84t-76.5 -35q-101 0 -101 78z" />
<glyph unicode="&#xe5;" d="M66 389q0 236 159.5 423t392.5 187q119 0 211.5 -56t135.5 -148l10 51q14 74 39.5 105.5t66.5 31.5q12 0 24.5 -4t20 -7t7.5 -5l-162 -760q-8 -35 -8 -59q0 -28 10 -43q18 -28 86 -29q4 0 1 -23.5t-25.5 -46t-67.5 -22.5q-82 0 -116 52q-23 35 -23 90q0 27 6 58 q-137 -209 -377 -209q-166 0 -278.5 109.5t-112.5 304.5zM201 391q0 -137 78.5 -218t193.5 -81q150 0 270.5 110.5t151.5 264.5l35 162q-74 254 -320 254q-182 0 -295.5 -152t-113.5 -340zM504 1333q0 111 75.5 193t190.5 82q98 0 160.5 -58.5t62.5 -148.5 q0 -111 -75.5 -193t-190.5 -82q-98 0 -160.5 58.5t-62.5 148.5zM608 1341q0 -51 35 -86.5t88 -35.5q70 0 114 53t44 121q0 51 -35 87t-88 36q-70 0 -114 -53.5t-44 -121.5z" />
<glyph unicode="&#xe6;" horiz-adv-x="1736" d="M27 219q0 186 167.5 270t579.5 93h21l2 8q8 40 8 75q0 84 -48 138q-69 76 -222 76q-215 0 -318 -152q-2 -2 -15.5 5t-27.5 25.5t-14 41.5q0 63 103.5 131.5t285.5 68.5q150 0 247 -63.5t119 -179.5q162 244 459 243q162 0 255 -70.5t93 -187.5q0 -156 -127 -233.5 t-440 -77.5q-119 0 -256 14q-4 -41 -4 -63q0 -133 76 -212t217 -79q209 0 330 162q2 4 19 -2t33.5 -22.5t16.5 -39.5q0 -41 -45 -86q-127 -127 -358 -127q-154 0 -250 63.5t-133 174.5q-63 -113 -174 -175.5t-260 -62.5q-156 0 -248 65.5t-92 178.5zM162 229 q0 -61 62.5 -101t160.5 -40q133 0 234.5 80t130.5 201l24 108l-59 -2q-219 -6 -341 -35.5t-167 -79t-45 -131.5zM926 557q115 -14 217 -14q444 0 444 196q0 59 -57 101.5t-162 42.5q-150 0 -270.5 -92.5t-171.5 -233.5z" />
<glyph unicode="&#xe7;" horiz-adv-x="1060" d="M63 428q0 227 162 398t391 171q215 0 338 -123q82 -82 82 -167q0 -39 -24.5 -60.5t-47 -19.5t-26.5 4q-20 111 -103 179.5t-214 68.5q-180 0 -300 -134.5t-120 -308.5q0 -152 92 -246t246 -94q201 0 317 185q2 4 20.5 -1.5t37 -21.5t18.5 -41q0 -47 -64 -111 q-55 -55 -146 -93t-196 -38q-199 0 -331 123t-132 330zM223 -438l219 342q1 2 8 2q8 0 24 -3q30 -5 58.5 -24.5t28.5 -48.5q0 -45 -45 -92l-231 -217q-5 -5 -12 -5q-12 0 -29 13q-22 16 -23 27q0 3 2 6z" />
<glyph unicode="&#xe8;" horiz-adv-x="1034" d="M57 373q0 264 177.5 445t437.5 181q162 0 255 -70.5t93 -187.5q0 -156 -127 -233.5t-440 -77.5q-119 0 -256 14q-4 -41 -4 -63q0 -133 75.5 -212t216.5 -79q209 0 330 162q2 4 19.5 -2t34 -22.5t16.5 -39.5q0 -41 -45 -86q-127 -127 -359 -127q-203 0 -313.5 110 t-110.5 288zM223 557q115 -14 217 -14q444 0 445 196q0 59 -57.5 101.5t-161.5 42.5q-150 0 -271 -92.5t-172 -233.5zM410 1382q0 25 20.5 42.5t44.5 17.5q41 0 92 -43q55 -45 109.5 -109.5t84.5 -109.5q25 -37 24 -48q0 -2 -1 -4q-2 -2 -6 -1q-13 0 -51 13q-51 17 -125 56 t-131 86q-61 51 -61 100z" />
<glyph unicode="&#xe9;" horiz-adv-x="1034" d="M57 373q0 264 177.5 445t437.5 181q162 0 255 -70.5t93 -187.5q0 -156 -127 -233.5t-440 -77.5q-119 0 -256 14q-4 -41 -4 -63q0 -133 75.5 -212t216.5 -79q209 0 330 162q2 4 19.5 -2t34 -22.5t16.5 -39.5q0 -41 -45 -86q-127 -127 -359 -127q-203 0 -313.5 110 t-110.5 288zM223 557q115 -14 217 -14q444 0 445 196q0 59 -57.5 101.5t-161.5 42.5q-150 0 -271 -92.5t-172 -233.5zM555 1130q0 9 40 50q44 45 117.5 107.5t137.5 98.5q49 31 94 31q27 0 43.5 -16.5t16.5 -40.5q0 -49 -84 -98q-70 -41 -158 -76t-146 -49q-40 -10 -54 -10 q-7 0 -7 3z" />
<glyph unicode="&#xea;" horiz-adv-x="1034" d="M57 373q0 264 177.5 445t437.5 181q162 0 255 -70.5t93 -187.5q0 -156 -127 -233.5t-440 -77.5q-119 0 -256 14q-4 -41 -4 -63q0 -133 75.5 -212t216.5 -79q209 0 330 162q2 4 19.5 -2t34 -22.5t16.5 -39.5q0 -41 -45 -86q-127 -127 -359 -127q-203 0 -313.5 110 t-110.5 288zM223 557q115 -14 217 -14q444 0 445 196q0 59 -57.5 101.5t-161.5 42.5q-150 0 -271 -92.5t-172 -233.5zM442 1159q0 61 138 176q41 35 87 69t72.5 51.5t30.5 17.5t23.5 -18.5t49 -50.5t54.5 -63q80 -104 80 -157q0 -59 -49 -60q-25 0 -49.5 28t-65.5 97 l-59 105l-105 -109q-117 -121 -168 -121q-39 0 -39 35z" />
<glyph unicode="&#xeb;" horiz-adv-x="1034" d="M57 373q0 264 177.5 445t437.5 181q162 0 255 -70.5t93 -187.5q0 -156 -127 -233.5t-440 -77.5q-119 0 -256 14q-4 -41 -4 -63q0 -133 75.5 -212t216.5 -79q209 0 330 162q2 4 19.5 -2t34 -22.5t16.5 -39.5q0 -41 -45 -86q-127 -127 -359 -127q-203 0 -313.5 110 t-110.5 288zM223 557q115 -14 217 -14q444 0 445 196q0 59 -57.5 101.5t-161.5 42.5q-150 0 -271 -92.5t-172 -233.5zM444 1200q0 49 28 84t77 35q100 0 100 -78q0 -49 -27.5 -84t-76.5 -35q-101 0 -101 78zM788 1200q0 49 28 84t77 35q100 0 100 -78q0 -49 -27.5 -84 t-76.5 -35q-101 0 -101 78z" />
<glyph unicode="&#xec;" horiz-adv-x="428" d="M88 205l152 715q14 63 61 63h16q57 0 58 -45q0 -8 -2 -18l-152 -713q-7 -33 -7 -57q0 -30 11 -46q20 -29 94 -28q4 0 1 -23.5t-26.5 -46t-70.5 -22.5q-145 0 -145 139q0 37 10 82zM100 1382q0 25 20.5 42.5t45.5 17.5q43 0 92 -43q55 -45 109.5 -109.5t84.5 -109.5 q25 -37 24 -48q0 -2 -1 -4q-2 -2 -6 -1q-13 0 -51 13q-51 17 -125 56t-131 86q-62 51 -62 100z" />
<glyph unicode="&#xed;" horiz-adv-x="428" d="M88 205l152 715q14 63 61 63h16q57 0 58 -45q0 -8 -2 -18l-152 -713q-7 -33 -7 -57q0 -30 11 -46q20 -29 94 -28q4 0 1 -23.5t-26.5 -46t-70.5 -22.5q-145 0 -145 139q0 37 10 82zM225 1130q0 9 40 50q44 45 118 107.5t137 98.5q49 31 94 31q25 0 42.5 -16.5t17.5 -40.5 q0 -49 -84 -98q-70 -41 -158 -76t-145 -49q-40 -10 -54 -10q-8 0 -8 3z" />
<glyph unicode="&#xee;" horiz-adv-x="428" d="M88 205l152 715q14 63 61 63h16q57 0 58 -45q0 -8 -2 -18l-152 -713q-7 -33 -7 -57q0 -30 11 -46q20 -29 94 -28q4 0 1 -23.5t-26.5 -46t-70.5 -22.5q-145 0 -145 139q0 37 10 82zM113 1159q0 61 137 176q41 35 87 69t72.5 51.5t30.5 17.5t23.5 -18.5t49.5 -50.5t54 -63 q80 -104 80 -157q0 -59 -49 -60q-25 0 -49.5 28t-65.5 97l-59 105l-105 -109q-117 -121 -167 -121q-39 0 -39 35z" />
<glyph unicode="&#xef;" horiz-adv-x="428" d="M88 205l152 715q14 63 61 63h16q57 0 58 -45q0 -8 -2 -18l-152 -713q-7 -33 -7 -57q0 -30 11 -46q20 -29 94 -28q4 0 1 -23.5t-26.5 -46t-70.5 -22.5q-145 0 -145 139q0 37 10 82zM115 1200q0 49 27.5 84t76.5 35q100 0 100 -78q0 -49 -27.5 -84t-76.5 -35 q-100 0 -100 78zM459 1200q0 49 27.5 84t76.5 35q100 0 101 -78q0 -49 -28 -84t-77 -35q-100 0 -100 78z" />
<glyph unicode="&#xf0;" horiz-adv-x="1114" d="M51 367q0 211 143.5 358t372.5 147q131 0 233.5 -58t143.5 -138q1 17 1 33q0 276 -193 442l-314 -180q-4 -2 -13 5t-17.5 22.5t-8.5 35.5q0 49 70 86l182 99q-125 70 -289 81q-2 4 -4 29t26 53.5t77 28.5q152 0 319 -125l236 135q1 0 2 1q4 0 11 -6q9 -7 17.5 -22.5 t8.5 -35.5q0 -49 -70 -86l-115 -62q204 -212 205 -502q0 -91 -20 -190q-51 -248 -209 -405q-137 -137 -346 -138q-201 0 -325 104t-124 288zM184 365q0 -129 87 -202t225 -73q158 0 268 110.5t154 338.5q-27 82 -127.5 149.5t-225.5 67.5q-190 0 -285.5 -108.5t-95.5 -282.5 z" />
<glyph unicode="&#xf1;" horiz-adv-x="1099" d="M45 55l197 922q0 6 28 6q79 0 80 -88q0 -23 -6 -53l-6 -27q118 184 324 184q158 0 250 -92t92 -237q0 -82 -60 -299q-49 -172 -49 -221q0 -39 20.5 -55.5t65.5 -20.5q4 0 1 -22.5t-25.5 -45t-63.5 -22.5q-61 0 -96 38.5t-35 106.5q0 66 53 260q51 182 51 256 q0 106 -58 167.5t-165 61.5q-111 0 -190.5 -57t-151.5 -178l-123 -584q-14 -63 -61 -63h-17q-57 0 -57 45q0 8 2 18zM416 1178q0 70 51 133t113 63q51 0 128.5 -44t155.5 -120q63 150 110.5 150t47.5 -41q0 -70 -51 -133.5t-113 -63.5q-51 0 -129 44t-156 120 q-63 -150 -110 -149.5t-47 41.5z" />
<glyph unicode="&#xf2;" horiz-adv-x="1126" d="M66 428q0 231 157.5 401t390.5 170q188 0 318.5 -127t130.5 -325q0 -231 -157.5 -401.5t-391.5 -170.5q-188 0 -318 127t-130 326zM201 432q0 -145 93 -242.5t228 -97.5q168 0 287 134t119 317q0 145 -93.5 242.5t-228.5 97.5q-168 0 -286.5 -134.5t-118.5 -316.5z M393 1382q0 25 20.5 42.5t45.5 17.5q41 0 92 -43q55 -45 109.5 -109.5t83.5 -109.5q25 -37 25 -48q0 -2 -1 -4q-2 -2 -6 -1q-13 0 -51 13q-51 17 -125 56t-131 86q-62 51 -62 100z" />
<glyph unicode="&#xf3;" horiz-adv-x="1126" d="M66 428q0 231 157.5 401t390.5 170q188 0 318.5 -127t130.5 -325q0 -231 -157.5 -401.5t-391.5 -170.5q-188 0 -318 127t-130 326zM201 432q0 -145 93 -242.5t228 -97.5q168 0 287 134t119 317q0 145 -93.5 242.5t-228.5 97.5q-168 0 -286.5 -134.5t-118.5 -316.5z M534 1130q0 9 40 50q44 45 118 107.5t137 98.5q49 31 95 31q27 0 43 -16.5t16 -40.5q0 -49 -84 -98q-70 -41 -158 -76t-145 -49q-40 -10 -54 -10q-8 0 -8 3z" />
<glyph unicode="&#xf4;" horiz-adv-x="1126" d="M66 428q0 231 157.5 401t390.5 170q188 0 318.5 -127t130.5 -325q0 -231 -157.5 -401.5t-391.5 -170.5q-188 0 -318 127t-130 326zM201 432q0 -145 93 -242.5t228 -97.5q168 0 287 134t119 317q0 145 -93.5 242.5t-228.5 97.5q-168 0 -286.5 -134.5t-118.5 -316.5z M401 1159q0 61 138 176q41 35 87 69t72.5 51.5t30.5 17.5t23.5 -18.5t49 -50.5t54.5 -63q80 -104 80 -157q0 -59 -49 -60q-25 0 -49.5 28t-65.5 97l-59 105l-105 -109q-117 -121 -168 -121q-39 0 -39 35z" />
<glyph unicode="&#xf5;" horiz-adv-x="1126" d="M66 428q0 231 157.5 401t390.5 170q188 0 318.5 -127t130.5 -325q0 -231 -157.5 -401.5t-391.5 -170.5q-188 0 -318 127t-130 326zM201 432q0 -145 93 -242.5t228 -97.5q168 0 287 134t119 317q0 145 -93.5 242.5t-228.5 97.5q-168 0 -286.5 -134.5t-118.5 -316.5z M381 1178q0 70 51 133t113 63q51 0 129 -44t155 -120q63 150 110.5 150t47.5 -41q0 -70 -51 -133.5t-113 -63.5q-51 0 -129 44t-155 120q-63 -150 -110.5 -149.5t-47.5 41.5z" />
<glyph unicode="&#xf6;" horiz-adv-x="1126" d="M66 428q0 231 157.5 401t390.5 170q188 0 318.5 -127t130.5 -325q0 -231 -157.5 -401.5t-391.5 -170.5q-188 0 -318 127t-130 326zM201 432q0 -145 93 -242.5t228 -97.5q168 0 287 134t119 317q0 145 -93.5 242.5t-228.5 97.5q-168 0 -286.5 -134.5t-118.5 -316.5z M403 1200q0 49 28 84t77 35q100 0 100 -78q0 -49 -27.5 -84t-76.5 -35q-101 0 -101 78zM748 1200q0 49 27.5 84t76.5 35q100 0 100 -78q0 -49 -27.5 -84t-76.5 -35q-100 0 -100 78z" />
<glyph unicode="&#xf8;" horiz-adv-x="1126" d="M-18 10q0 43 53 88l98 86q-68 109 -67 244q0 231 157.5 401t390.5 170q176 0 306 -116l157 143q1 1 4 1q5 0 14 -5q13 -8 25.5 -24.5t12.5 -34.5q0 -41 -54 -89l-88 -77q72 -111 72 -250q0 -231 -157.5 -401.5t-391.5 -170.5q-178 0 -309 121l-168 -149q-1 -1 -4 -2 q-5 0 -14 6q-13 8 -25 24.5t-12 34.5zM201 432q0 -86 37 -164l587 527q-88 88 -219 88q-168 0 -286.5 -134.5t-118.5 -316.5zM297 184q92 -92 225 -92q168 0 287 134t119 317q0 90 -39 168z" />
<glyph unicode="&#xf9;" horiz-adv-x="1099" d="M113 424l104 496q12 63 62 63h16q57 0 57 -45q0 -8 -2 -18l-106 -506q-11 -50 -11 -93q0 -79 36 -135q56 -86 186 -86q111 0 190.5 57.5t151.5 178.5l123 584q12 63 61 63h16q57 0 58 -45q0 -8 -2 -18l-152 -713q-8 -35 -8 -59q0 -28 10 -43q18 -28 86 -29q4 0 1 -23.5 t-25.5 -46t-67.5 -22.5q-138 0 -138 138q0 20 3 42q-117 -188 -326 -189q-193 0 -279 125q-58 84 -59 201q1 57 15 123zM416 1382q0 25 20.5 42.5t44.5 17.5q43 0 92 -43q55 -45 109.5 -109.5t84.5 -109.5q25 -37 25 -48q0 -2 -1 -4q-2 -2 -7 -1q-13 0 -51 13 q-51 17 -124.5 56t-131.5 86q-61 51 -61 100z" />
<glyph unicode="&#xfa;" horiz-adv-x="1099" d="M113 424l104 496q12 63 62 63h16q57 0 57 -45q0 -8 -2 -18l-106 -506q-11 -50 -11 -93q0 -79 36 -135q56 -86 186 -86q111 0 190.5 57.5t151.5 178.5l123 584q12 63 61 63h16q57 0 58 -45q0 -8 -2 -18l-152 -713q-8 -35 -8 -59q0 -28 10 -43q18 -28 86 -29q4 0 1 -23.5 t-25.5 -46t-67.5 -22.5q-138 0 -138 138q0 20 3 42q-117 -188 -326 -189q-193 0 -279 125q-58 84 -59 201q1 57 15 123zM581 1130q0 9 41 50q44 45 117.5 107.5t137.5 98.5q49 31 94 31q25 0 42 -16.5t17 -40.5q0 -49 -84 -98q-70 -41 -158 -76t-145 -49q-40 -10 -54 -10 q-8 0 -8 3z" />
<glyph unicode="&#xfb;" horiz-adv-x="1099" d="M113 424l104 496q12 63 62 63h16q57 0 57 -45q0 -8 -2 -18l-106 -506q-11 -50 -11 -93q0 -79 36 -135q56 -86 186 -86q111 0 190.5 57.5t151.5 178.5l123 584q12 63 61 63h16q57 0 58 -45q0 -8 -2 -18l-152 -713q-8 -35 -8 -59q0 -28 10 -43q18 -28 86 -29q4 0 1 -23.5 t-25.5 -46t-67.5 -22.5q-138 0 -138 138q0 20 3 42q-117 -188 -326 -189q-193 0 -279 125q-58 84 -59 201q1 57 15 123zM449 1159q0 61 137 176q41 35 87 69t72.5 51.5t30.5 17.5t23.5 -18.5t49.5 -50.5t54 -63q80 -104 80 -157q0 -59 -49 -60q-25 0 -49.5 28t-65.5 97 l-59 105l-105 -109q-117 -121 -168 -121q-38 0 -38 35z" />
<glyph unicode="&#xfc;" horiz-adv-x="1099" d="M113 424l104 496q12 63 62 63h16q57 0 57 -45q0 -8 -2 -18l-106 -506q-11 -50 -11 -93q0 -79 36 -135q56 -86 186 -86q111 0 190.5 57.5t151.5 178.5l123 584q12 63 61 63h16q57 0 58 -45q0 -8 -2 -18l-152 -713q-8 -35 -8 -59q0 -28 10 -43q18 -28 86 -29q4 0 1 -23.5 t-25.5 -46t-67.5 -22.5q-138 0 -138 138q0 20 3 42q-117 -188 -326 -189q-193 0 -279 125q-58 84 -59 201q1 57 15 123zM451 1200q0 49 27.5 84t76.5 35q100 0 100 -78q0 -49 -27.5 -84t-76.5 -35q-100 0 -100 78zM795 1200q0 49 27.5 84t76.5 35q100 0 100 -78 q0 -49 -27.5 -84t-76.5 -35q-100 0 -100 78z" />
<glyph unicode="&#xfd;" horiz-adv-x="950" d="M-193 -313q0 20 12.5 37.5t26 26.5t17.5 5q18 -23 53 -38t59 -15q63 0 133 62.5t189 236.5l33 47q-61 8 -72 88l-57 539q-10 106 -47 153.5t-107 47.5q-2 0 -2 11t3 26.5t12.5 31t32 26.5t57.5 11q154 0 182 -319l49 -543l524 860q4 -2 23.5 0t42 -15.5t22.5 -50.5 q0 -31 -39 -94l-528 -846q-145 -231 -238.5 -312t-203.5 -81q-104 0 -152 47q-25 25 -25 58zM487 1109q0 9 40 50q44 45 118 107.5t137 99.5q49 31 95 31q25 0 42 -16.5t17 -41.5q0 -49 -84 -98q-70 -41 -158 -76t-145 -49q-40 -10 -54 -10q-8 0 -8 3z" />
<glyph unicode="&#xfe;" horiz-adv-x="1159" d="M-39 -340l354 1671q8 35 21.5 49.5t40.5 14.5h16q57 0 57 -46q0 -8 -1 -18l-113 -524q141 193 358 192q166 0 284 -114.5t118 -317.5q0 -233 -151.5 -412.5t-381.5 -179.5q-127 0 -218 61.5t-138 158.5l-113 -535q-14 -63 -61 -63h-17q-57 0 -57 45q0 8 2 18zM262 453 q-6 -34 -6 -66q0 -104 67 -186q87 -109 248 -109q178 0 284 143.5t106 331.5q0 145 -83 230.5t-200 85.5t-218.5 -67.5t-158.5 -178.5z" />
<glyph unicode="&#xff;" horiz-adv-x="950" d="M-193 -313q0 20 12.5 37.5t26 26.5t17.5 5q18 -23 53 -38t59 -15q63 0 133 62.5t189 236.5l33 47q-61 8 -72 88l-57 539q-10 106 -47 153.5t-107 47.5q-2 0 -2 11t3 26.5t12.5 31t32 26.5t57.5 11q154 0 182 -319l49 -543l524 860q4 -2 23.5 0t42 -15.5t22.5 -50.5 q0 -31 -39 -94l-528 -846q-145 -231 -238.5 -312t-203.5 -81q-104 0 -152 47q-25 25 -25 58zM326 1200q0 49 27.5 84t76.5 35q100 0 100 -78q0 -49 -27.5 -84t-76.5 -35q-100 0 -100 78zM670 1200q0 49 27.5 84t76.5 35q100 0 100 -78q0 -49 -27.5 -84t-76.5 -35 q-100 0 -100 78z" />
<glyph unicode="&#x152;" horiz-adv-x="2091" d="M125 551q0 340 223 569.5t510 229.5q96 0 180 -25h1071q63 0 64 -35q0 -47 -27 -78q-12 -14 -53 -14h-825q180 -164 180 -422v-35h393q61 0 62 -32q0 -51 -25 -76q-14 -14 -51 -15h-393q-59 -303 -308 -491h740q63 0 63 -35q0 -47 -26 -78q-12 -14 -54 -14h-972 q-84 -23 -162 -23q-268 0 -429 162t-161 412zM272 561q0 -199 122 -331t335 -132q221 0 396 191.5t175 476.5q0 199 -121.5 331t-334.5 132q-221 0 -396.5 -191.5t-175.5 -476.5z" />
<glyph unicode="&#x153;" horiz-adv-x="1892" d="M66 428q0 231 155.5 401t386.5 170q150 0 261.5 -78.5t156.5 -218.5q80 137 213 217t291 80q162 0 255 -70.5t93 -187.5q0 -156 -127 -233.5t-440 -77.5q-119 0 -256 14q-4 -41 -4 -63q0 -133 75.5 -212t216.5 -79q209 0 330 162q2 4 19.5 -2t34 -22.5t16.5 -39.5 q0 -41 -45 -86q-127 -127 -359 -127q-145 0 -244.5 68t-138.5 182q-74 -115 -190.5 -182.5t-255.5 -67.5q-188 0 -316 124t-128 329zM201 432q0 -145 93 -242.5t228 -97.5q168 0 287 134t119 317q0 145 -93.5 242.5t-228.5 97.5q-168 0 -286.5 -134.5t-118.5 -316.5z M1081 557q115 -14 217 -14q444 0 445 196q0 59 -57.5 101.5t-161.5 42.5q-150 0 -271 -92.5t-172 -233.5z" />
<glyph unicode="&#x178;" horiz-adv-x="1124" d="M186 1280q-2 6 7.5 18.5t31 23.5t43.5 11q47 0 68 -53l260 -602l559 659q2 2 22.5 -3t41 -23.5t20.5 -48.5q0 -39 -59 -107l-537 -612l-102 -488q-14 -63 -76 -63h-19q-48 0 -47 41q0 10 2 22l107 502zM479 1528q0 49 28 84t77 35q100 0 100 -78q0 -49 -27.5 -84 t-76.5 -35q-101 0 -101 78zM823 1528q0 49 28 84t77 35q100 0 100 -78q0 -49 -27.5 -84t-76.5 -35q-101 0 -101 78z" />
<glyph unicode="&#x2c6;" horiz-adv-x="1024" d="M391 1159q0 61 137 176q41 35 87.5 69t73 51.5t30.5 17.5t23.5 -18.5t49 -50.5t54.5 -63q80 -104 80 -157q0 -59 -49 -60q-25 0 -49.5 28t-65.5 97l-60 105l-104 -109q-117 -121 -168 -121q-39 0 -39 35z" />
<glyph unicode="&#x2dc;" horiz-adv-x="1024" d="M371 1178q0 70 51 133t113 63q51 0 128.5 -44t155.5 -120q63 150 110.5 150t47.5 -41q0 -70 -51.5 -133.5t-112.5 -63.5q-51 0 -129 44t-156 120q-63 -150 -110 -149.5t-47 41.5z" />
<glyph unicode="&#x2013;" horiz-adv-x="1075" d="M92 469q0 47 25 72q14 14 49 14h764q59 0 59 -33q0 -47 -24 -71q-14 -14 -50 -15h-763q-60 0 -60 33z" />
<glyph unicode="&#x2014;" horiz-adv-x="1419" d="M92 469q0 47 25 72q14 14 49 14h1108q59 0 59 -33q0 -47 -24 -71q-14 -14 -49 -15h-1108q-60 0 -60 33z" />
<glyph unicode="&#x2018;" horiz-adv-x="413" d="M180 938q0 43 39 92l264 332q4 5 12 5q11 0 28 -11q23 -14 24 -28q0 -4 -2 -7l-238 -451q-4 -1 -18 -1h-17q-29 1 -60.5 19.5t-31.5 49.5z" />
<glyph unicode="&#x2019;" horiz-adv-x="413" d="M135 905l238 451q4 1 18 1h17q29 -1 60.5 -19.5t31.5 -49.5q0 -43 -39 -92l-264 -332q-4 -5 -12 -5q-11 0 -28 11q-23 14 -24 28q0 3 2 7z" />
<glyph unicode="&#x201a;" horiz-adv-x="428" d="M-131 -250l237 451q4 1 19 1h16q29 -1 60.5 -19.5t31.5 -49.5q0 -43 -38 -92l-265 -332q-4 -5 -11 -5q-11 0 -29 11q-23 14 -23 28q0 3 2 7z" />
<glyph unicode="&#x201c;" horiz-adv-x="727" d="M180 940q0 43 39 92l264 332q4 5 12 5q11 0 28 -11q30 -18 22 -35l-238 -451q-6 -2 -34.5 -1t-60.5 19.5t-32 49.5zM494 938q0 43 38 92l265 332q4 5 11 5q11 0 29 -11q23 -14 23 -28q0 -4 -2 -7l-237 -451q-4 -1 -19 -1h-16q-29 1 -60.5 19.5t-31.5 49.5z" />
<glyph unicode="&#x201d;" horiz-adv-x="727" d="M135 905l238 451q4 1 18 1h17q29 -1 60.5 -19.5t31.5 -49.5q0 -43 -39 -92l-264 -332q-4 -5 -12 -5q-11 0 -28 11q-23 14 -24 28q0 3 2 7zM449 903l237 451q4 1 18 1h17q29 -1 60.5 -19.5t31.5 -49.5q0 -43 -39 -92l-264 -332q-4 -5 -11 -5q-11 0 -29 11q-23 14 -23 28 q0 3 2 7z" />
<glyph unicode="&#x201e;" horiz-adv-x="741" d="M-131 -250l237 451q4 1 19 1h16q29 -1 60.5 -19.5t31.5 -49.5q0 -43 -38 -92l-265 -332q-4 -5 -11 -5q-11 0 -29 11q-23 14 -23 28q0 3 2 7zM182 -252l238 451q4 1 18 1h17q29 -1 60.5 -19.5t31.5 -49.5q0 -43 -39 -92l-264 -332q-4 -5 -12 -5q-11 0 -28 11 q-23 14 -23 28q-1 3 1 7z" />
<glyph unicode="&#x2022;" horiz-adv-x="663" d="M125 496q0 88 60.5 150.5t148.5 62.5t148.5 -62.5t60.5 -150.5t-60.5 -149.5t-148.5 -61.5t-148.5 61.5t-60.5 149.5z" />
<glyph unicode="&#x2026;" horiz-adv-x="1284" d="M27 57q0 74 32 107q27 27 76 26q98 0 98 -69q0 -74 -32 -107q-27 -27 -76 -26q-98 -1 -98 69zM455 57q0 74 32 107q27 27 76 26q98 0 99 -69q0 -74 -33 -107q-27 -27 -76 -26q-98 -1 -98 69zM883 57q0 74 32 107q27 27 76 26q98 0 99 -69q0 -74 -33 -107q-27 -27 -76 -26 q-98 -1 -98 69z" />
<glyph unicode="&#x2039;" horiz-adv-x="638" d="M130 550q30 30 81 74t102 83q168 129 240 129q47 0 47 -50q0 -31 -62.5 -88t-152.5 -112q-6 -4 -68.5 -43t-97.5 -58q59 -47 127 -110q76 -72 103.5 -105.5t27.5 -62.5q0 -18 -16.5 -32.5t-38.5 -14.5q-74 0 -191 143q-55 68 -96 133q-37 60 -37 75q0 7 32 39z" />
<glyph unicode="&#x203a;" horiz-adv-x="638" d="M47 209q0 31 62.5 88t152.5 113q6 4 68.5 43t97.5 57q-59 47 -127 111q-76 72 -103.5 105.5t-27.5 61.5q0 18 16.5 33t38.5 15q74 0 191 -144q55 -68 96 -133q37 -60 37 -75q0 -6 -32 -39q-30 -30 -81 -73.5t-102 -82.5q-168 -129 -240 -129q-47 0 -47 49z" />
<glyph unicode="&#x20ac;" horiz-adv-x="1282" d="M74 479q0 47 24 72q14 14 49 14h136q8 88 39 205h-119q-59 0 -60 33q0 47 25 71q14 14 49 15h143q76 190 183 297q164 164 395 164q190 0 307 -117q72 -72 72 -164q0 -37 -23.5 -61.5t-45 -25.5t-25.5 1q-59 250 -301 250q-164 0 -285 -121q-80 -80 -139 -223h442 q59 0 59 -33q0 -47 -24 -72q-14 -14 -49 -14h-467q-29 -98 -39 -205h450q59 0 60 -33q0 -47 -25 -71q-14 -14 -49 -15h-438q10 -154 97 -253t230 -99q199 0 336 201q2 4 18.5 -2t32 -24.5t15.5 -41.5q0 -51 -66 -116q-57 -57 -148 -96.5t-183 -39.5q-223 0 -344 126 t-130 345h-143q-59 0 -59 33z" />
<glyph unicode="&#x2122;" horiz-adv-x="1386" d="M170 1274v8q0 45 49 45h438q49 0 50 -45v-8q0 -45 -50 -45h-163v-479q0 -51 -50 -52h-14q-45 0 -45 52v479h-166q-49 0 -49 45zM817 750v524q0 59 53 59h52q43 0 61 -45l129 -319l129 319q20 45 62 45h47q53 0 53 -59v-524q0 -51 -45 -52h-15q-43 0 -43 52v436l-133 -330 q-10 -29 -57 -29q-23 0 -34 4.5t-14 8.5t-7 16l-135 328v-434q0 -51 -41 -52h-19q-43 1 -43 52z" />
<glyph unicode="&#xe000;" horiz-adv-x="995" d="M0 995h995v-995h-995v995z" />
<glyph unicode="&#xfb01;" horiz-adv-x="1103" d="M109 889q0 47 24 72q14 14 49 14h148l26 119q68 317 318 317q115 0 172 -57q29 -29 28 -66q0 -20 -12 -38.5t-24.5 -27t-14.5 -3.5q-51 74 -155 73q-141 0 -187 -217l-22 -100h194q59 0 60 -33q0 -47 -25 -72q-14 -14 -49 -14h-203l-168 -801q-14 -63 -61 -63h-17 q-57 0 -57 45q0 8 2 18l170 801h-137q-59 0 -59 33zM764 205l151 715q14 63 62 63h16q57 0 57 -45q0 -8 -1 -18l-152 -713q-7 -33 -7 -57q0 -30 11 -46q20 -29 94 -28q4 0 1 -23.5t-26.5 -46t-70.5 -22.5q-145 0 -145 139q0 37 10 82zM975 1288q0 43 24.5 74t69.5 31 q90 0 90 -68q0 -43 -24.5 -73.5t-69.5 -30.5q-90 -1 -90 67z" />
<glyph unicode="&#xfb02;" horiz-adv-x="1103" d="M109 889q0 47 24 72q14 14 49 14h148l26 119q68 317 318 317q115 0 172 -57q29 -29 28 -66q0 -20 -12 -38.5t-24.5 -27t-14.5 -3.5q-51 74 -155 73q-141 0 -187 -217l-22 -100h194q59 0 60 -33q0 -47 -25 -72q-14 -14 -49 -14h-203l-168 -801q-14 -63 -61 -63h-17 q-57 0 -57 45q0 8 2 18l170 801h-137q-59 0 -59 33zM764 205l240 1126q14 63 61 64h16q57 0 58 -46q0 -8 -2 -18l-240 -1124q-7 -33 -7 -57q0 -30 11 -46q20 -29 94 -28q4 0 1 -23.5t-26.5 -46t-70.5 -22.5q-145 0 -145 139q0 37 10 82z" />
<glyph unicode="&#xfb03;" horiz-adv-x="1779" d="M109 889q0 47 24 72q14 14 49 14h148l26 119q68 317 318 317q115 0 172 -57q29 -29 28 -66q0 -20 -12 -38.5t-24.5 -27t-14.5 -3.5q-51 74 -155 73q-141 0 -187 -217l-22 -100h194q59 0 60 -33q0 -47 -25 -72q-14 -14 -49 -14h-203l-168 -801q-14 -63 -61 -63h-17 q-57 0 -57 45q0 8 2 18l170 801h-137q-59 0 -59 33zM784 889q0 47 25 72q14 14 49 14h148l26 119q68 317 318 317q115 0 172 -57q29 -29 28 -66q0 -20 -12 -38.5t-24.5 -27t-14.5 -3.5q-51 74 -156 73q-141 0 -186 -217l-22 -100h194q59 0 60 -33q0 -47 -25 -72 q-14 -14 -49 -14h-203l-168 -801q-14 -63 -61 -63h-17q-57 0 -57 45q0 8 2 18l170 801h-137q-60 0 -60 33zM1440 205l151 715q14 63 62 63h16q57 0 57 -45q0 -8 -2 -18l-151 -713q-7 -33 -7 -57q0 -30 11 -46q20 -29 94 -28q4 0 1 -23.5t-26.5 -46t-70.5 -22.5 q-145 0 -145 139q0 37 10 82zM1651 1288q0 43 24.5 74t69.5 31q90 0 90 -68q0 -43 -24.5 -73.5t-69.5 -30.5q-90 -1 -90 67z" />
<glyph unicode="&#xfb04;" horiz-adv-x="1779" d="M109 889q0 47 24 72q14 14 49 14h148l26 119q68 317 318 317q115 0 172 -57q29 -29 28 -66q0 -20 -12 -38.5t-24.5 -27t-14.5 -3.5q-51 74 -155 73q-141 0 -187 -217l-22 -100h194q59 0 60 -33q0 -47 -25 -72q-14 -14 -49 -14h-203l-168 -801q-14 -63 -61 -63h-17 q-57 0 -57 45q0 8 2 18l170 801h-137q-59 0 -59 33zM784 889q0 47 25 72q14 14 49 14h148l26 119q68 317 318 317q115 0 172 -57q29 -29 28 -66q0 -20 -12 -38.5t-24.5 -27t-14.5 -3.5q-51 74 -156 73q-141 0 -186 -217l-22 -100h194q59 0 60 -33q0 -47 -25 -72 q-14 -14 -49 -14h-203l-168 -801q-14 -63 -61 -63h-17q-57 0 -57 45q0 8 2 18l170 801h-137q-60 0 -60 33zM1440 205l239 1126q14 63 62 64h16q57 0 57 -46q0 -8 -2 -18l-239 -1124q-7 -33 -7 -57q0 -30 11 -46q20 -29 94 -28q4 0 1 -23.5t-26.5 -46t-70.5 -22.5 q-145 0 -145 139q0 37 10 82z" />
</font>
</defs>
</svg>
